<?xml version="1.0" encoding="UTF-8" standalone="no"?>
<!-- Created with Inkscape (http://www.inkscape.org/) -->

<svg
   xmlns:dc="http://purl.org/dc/elements/1.1/"
   xmlns:cc="http://creativecommons.org/ns#"
   xmlns:rdf="http://www.w3.org/1999/02/22-rdf-syntax-ns#"
   xmlns:svg="http://www.w3.org/2000/svg"
   xmlns="http://www.w3.org/2000/svg"
   xmlns:sodipodi="http://sodipodi.sourceforge.net/DTD/sodipodi-0.dtd"
   xmlns:inkscape="http://www.inkscape.org/namespaces/inkscape"
   width="126.10892mm"
   height="91.504593mm"
   viewBox="0 0 126.10892 91.504593"
   version="1.1"
   id="svg8"
   inkscape:version="0.92.4 (5da689c313, 2019-01-14)"
   sodipodi:docname="outline.svg">
  <defs
     id="defs2" />
  <sodipodi:namedview
     id="base"
     pagecolor="#ffffff"
     bordercolor="#666666"
     borderopacity="1.0"
     inkscape:pageopacity="0.0"
     inkscape:pageshadow="2"
     inkscape:zoom="2.5365776"
     inkscape:cx="232.99579"
     inkscape:cy="169.16491"
     inkscape:document-units="mm"
     inkscape:current-layer="layer1"
     showgrid="false"
     inkscape:window-width="1920"
     inkscape:window-height="1141"
     inkscape:window-x="1920"
     inkscape:window-y="0"
     inkscape:window-maximized="1"
     fit-margin-top="0"
     fit-margin-left="0"
     fit-margin-right="0"
     fit-margin-bottom="0" />
  <metadata
     id="metadata5">
    <rdf:RDF>
      <cc:Work
         rdf:about="">
        <dc:format>image/svg+xml</dc:format>
        <dc:type
           rdf:resource="http://purl.org/dc/dcmitype/StillImage" />
        <dc:title></dc:title>
      </cc:Work>
    </rdf:RDF>
  </metadata>
  <g
     inkscape:label="Layer 1"
     inkscape:groupmode="layer"
     id="layer1"
     transform="translate(-42.700432,-80.920299)">
    <path
       id="path3798-0"
       style="fill:#ff0000;stroke-width:0.127"
       d="m 105.61705,81.015277 c -3.23638,0.0571 -2.47751,-0.432135 -6.201539,0.377151 -3.72403,0.809286 0.55628,5.598563 -6.04131,6.490495 -6.59759,0.891932 -13.17669,5.423189 -17.7786,8.419805 -4.60191,2.996616 -8.94544,7.141102 -12.04313,10.475992 -3.09769,3.33489 -4.40511,4.87957 -8.57616,9.70199 -4.17105,4.82242 -9.89077,16.31613 -11.5073,22.19033 -1.61653,5.87421 -0.44199,6.84421 1.29883,10.83954 1.74082,3.99533 5.87825,7.50659 9.73943,10.06415 3.86118,2.55756 8.50147,4.48774 12.36447,5.91479 3.863,1.42705 4.9918,1.90714 9.36018,2.90484 4.36838,0.9977 11.62022,2.69108 16.16185,3.21689 4.54163,0.52581 7.902539,0.166 10.044359,0.63409 0,0 3.34566,0.17502 6.15327,0.17953 2.80761,0.005 6.67766,-0.76036 10.14969,-1.02502 3.47203,-0.26466 7.27524,-0.65461 11.50376,-1.89569 4.22851,-1.24108 9.42789,-2.61509 13.208,-4.05255 3.7801,-1.43746 4.4378,-1.73575 7.93883,-3.74892 7.23308,-4.35 13.57217,-7.06447 16.38385,-14.68912 0.96282,-2.6254 1.40993,-7.90543 0.6494,-11.51064 -2.10245,-7.06024 -7.20608,-17.1588 -11.41559,-21.3539 -3.09673,-3.01854 -3.39456,-4.5595 -8.85806,-9.3872 -5.46349,-4.827698 -17.2861,-11.603218 -23.04993,-14.691231 -5.76384,-3.088013 -9.76254,-0.582605 -9.77358,-5.390846 -0.011,-4.80824 -7.01307,-3.60674 -9.71072,-3.664476 m 28.05684,13.504392 c 0.31323,-0.452412 0.15358,0.464333 0,0 z M 105.89273,81.015278 c 3.23638,0.0571 2.47751,-0.432135 6.20154,0.377151 3.72403,0.809286 -0.55628,5.598563 6.04131,6.490495 6.59759,0.891932 13.17669,5.423189 17.7786,8.419805 4.60191,2.996616 8.94544,7.141101 12.04313,10.475991 3.09769,3.33489 4.40511,4.87957 8.57616,9.70199 4.17105,4.82242 9.89077,16.31613 11.5073,22.19033 1.61653,5.8742 0.44199,6.8442 -1.29883,10.83953 -1.74082,3.99533 -5.87825,7.50659 -9.73943,10.06415 -3.86118,2.55756 -8.50147,4.48774 -12.36447,5.91479 -3.863,1.42705 -4.9918,1.90714 -9.36018,2.90484 -4.36838,0.9977 -11.62022,2.69108 -16.16185,3.21689 -4.54163,0.52581 -7.90254,0.166 -10.04436,0.63409 0,0 -3.34566,0.17502 -6.15327,0.17953 -2.80761,0.005 -6.677659,-0.76036 -10.149689,-1.02502 -3.47203,-0.26466 -7.27524,-0.65461 -11.50376,-1.89569 -4.22851,-1.24108 -9.42789,-2.61509 -13.208,-4.05255 -3.780106,-1.43746 -4.437805,-1.73575 -7.938827,-3.74892 -7.233091,-4.35001 -13.572163,-7.06446 -16.383851,-14.68912 -0.962821,-2.6254 -1.409938,-7.90542 -0.649402,-11.51063 2.102451,-7.06024 7.20608,-17.1588 11.415586,-21.3539 3.096735,-3.01854 3.394561,-4.5595 8.858059,-9.3872 5.463495,-4.827697 17.286105,-11.603217 23.049935,-14.69123 5.76384,-3.088013 9.76254,-0.582605 9.77358,-5.390846 0.011,-4.80824 7.013069,-3.60674 9.710719,-3.664476 M 77.835881,94.51967 c -0.31322,-0.452412 -0.15357,0.464333 0,0 z"
       inkscape:connector-curvature="0"
       sodipodi:nodetypes="cccccccccccccccccccccccccccccccccccccccccccccccccccccc" />
  </g>
</svg>
