<?xml version="1.0" encoding="UTF-8" standalone="no"?>
<svg
   xmlns:dc="http://purl.org/dc/elements/1.1/"
   xmlns:cc="http://creativecommons.org/ns#"
   xmlns:rdf="http://www.w3.org/1999/02/22-rdf-syntax-ns#"
   xmlns:svg="http://www.w3.org/2000/svg"
   xmlns="http://www.w3.org/2000/svg"
   xmlns:sodipodi="http://sodipodi.sourceforge.net/DTD/sodipodi-0.dtd"
   xmlns:inkscape="http://www.inkscape.org/namespaces/inkscape"
   width="321.65829"
   height="432.88895"
   id="svg3004"
   version="1.1"
   inkscape:version="0.48.4 r9939"
   sodipodi:docname="cheerson-cx10-millenium-falcon.svg">
  <metadata
     id="metadata3954">
    <rdf:RDF>
      <cc:Work
         rdf:about="">
        <dc:format>image/svg+xml</dc:format>
        <dc:type
           rdf:resource="http://purl.org/dc/dcmitype/StillImage" />
        <dc:title></dc:title>
      </cc:Work>
    </rdf:RDF>
  </metadata>
  <sodipodi:namedview
     pagecolor="#ffffff"
     bordercolor="#666666"
     borderopacity="1"
     objecttolerance="10"
     gridtolerance="10"
     guidetolerance="10"
     inkscape:pageopacity="0"
     inkscape:pageshadow="2"
     inkscape:window-width="1920"
     inkscape:window-height="1143"
     id="namedview3952"
     showgrid="true"
     fit-margin-top="0"
     fit-margin-left="0"
     fit-margin-right="0"
     fit-margin-bottom="0"
     inkscape:showpageshadow="false"
     inkscape:zoom="1.8139224"
     inkscape:cx="150.88988"
     inkscape:cy="239.59664"
     inkscape:window-x="1920"
     inkscape:window-y="0"
     inkscape:window-maximized="1"
     inkscape:current-layer="g3350">
    <inkscape:grid
       type="xygrid"
       id="grid3956"
       empspacing="5"
       visible="true"
       enabled="true"
       snapvisiblegridlinesonly="true"
       dotted="true"
       originx="-26.775482px"
       originy="1.4387132px" />
  </sodipodi:namedview>
  <desc
     id="desc3006">/home/jeremy/gittrees/scad-examples/cheerson-cx10/cheerson-cx10-millenium-falcon.dxf - scale = 1.000000</desc>
  <defs
     id="defs3008">
    <marker
       id="DistanceX"
       orient="auto"
       refX="0"
       refY="0"
       style="overflow:visible">
      <path
         d="M 3,-3 -3,3 M 0,-5 0,5"
         style="stroke:#000000;stroke-width:0.5"
         id="path3011"
         inkscape:connector-curvature="0" />
    </marker>
    <pattern
       height="8"
       id="Hatch"
       patternUnits="userSpaceOnUse"
       width="8"
       x="0"
       y="0">
      <path
         d="M8 4 l-4,4"
         linecap="square"
         stroke="#000000"
         stroke-width="0.25"
         id="path3014" />
      <path
         d="M6 2 l-4,4"
         linecap="square"
         stroke="#000000"
         stroke-width="0.25"
         id="path3016" />
      <path
         d="M4 0 l-4,4"
         linecap="square"
         stroke="#000000"
         stroke-width="0.25"
         id="path3018" />
    </pattern>
    <symbol
       id="*Model_Space" />
    <symbol
       id="*Paper_Space" />
  </defs>
  <g
     inkscape:groupmode="layer"
     inkscape:label="millennium_falcon"
     id="g3350"
     transform="translate(150.88987,-813.26327)">
    <g
       id="g4837"
       transform="matrix(0.70710678,0.70710678,-0.70710678,0.70710678,767.61479,364.94095)"
       style="fill:#ff00ff;fill-opacity:1;stroke:#ff0000;stroke-width:0.01;stroke-miterlimit:4;stroke-opacity:1;stroke-dasharray:none" />
    <path
       style="fill:#ff0000;fill-opacity:1;stroke:none"
       d="m 50.674568,813.26572 -11.75,0.0625 a 3.8503849,3.8503849 0 0 0 -2.875,1.28125 l -3.5625,4 a 3.8503849,3.8503849 0 0 0 -0.96875,2.5625 l -0.1875,64 a 3.8503849,3.8503849 0 0 0 0.4375,1.8125 l 4.375,8.1875 -0.15625,39.53125 -60.78125,-0.0312 -0.15625,-39.65625 4.3125,-8 a 3.8503849,3.8503849 0 0 0 0.46875,-1.84375 l -0.125,-64 a 3.8503849,3.8503849 0 0 0 -0.84375,-2.40625 l -3.21875,-4 a 3.8503849,3.8503849 0 0 0 -3,-1.4375 l -11.84375,0 a 3.8503849,3.8503849 0 0 0 -3.5625,2.34375 l -40.125,93.6875 -2.1875,0.71875 -3.09375,2.5625 0.03125,4.53125 1.21875,1.59375 -3.59375,8.40625 -1.1875,0.1875 -8.781248,18.125 -2.03125,1.9375 -8.71875,18.96875 -2.34375,1.78125 -7.46875,19.21875 2.78125,2.1875 -2.09375,4.65625 -17.28125,27.03128 a 3.8503849,3.8503849 0 0 0 -0.4375,1 l -8.09375,27.8438 a 3.8503849,3.8503849 0 0 0 -0.1875,1.9062 c -0.62577,2.5443 -1.15946,5.0908 -1.65625,7.6563 0.003,0.01 -0.003,0.022 0,0.031 0.49499,1.4856 2,2.8169 3,2.9688 0.0966,0.015 0.18959,0.017 0.28125,0.031 l 0,0.062 c 5.34752,0.8152 14.875,2.3125 14.875,2.3125 l -0.0625,1.25 c 0,0 -6.46276,0.3606 -12.03125,0.7813 0.002,-0.01 -0.002,-0.021 0,-0.031 -0.93946,0.071 -1.70767,0.143 -2.5625,0.2188 -0.23508,0.02 -0.52498,0.042 -0.75,0.062 -0.42676,0.04 -0.96607,0.086 -1.34375,0.125 -1.05428,0.1076 -2.39964,1.2265 -3.03125,2.6875 -0.0102,0.024 -0.0437,0.046 -0.0625,0.062 -1.56757,12.6444 -1.58294,25.4168 -0.0625,38.0625 0.0168,0.015 0.0531,0.01 0.0625,0.031 0.63161,1.461 1.94572,2.6111 3,2.7188 0.40151,0.041 0.97715,0.087 1.4375,0.125 5.84768,0.5304 15.34375,1.0312 15.34375,1.0312 l 0.0625,1.25 c 0,0 -6.48638,1.0266 -11.5625,1.8125 -1.45296,0.225 -2.12248,0.3186 -3.3125,0.5 -0.11201,0.017 -0.22434,0.044 -0.34375,0.062 -1,0.1519 -2.50501,1.5144 -3,3 -0.0131,0.039 -0.0463,0.06 -0.0625,0.094 0.71381,3.7457 1.57135,7.4572 2.5625,11.1561 22.4067,83.623 108.159538,133.0332 191.437498,110.7189 59.972852,-16.0697 102.496322,-65.1753 113.250002,-122.625 -0.64807,-1.2142 -1.86656,-2.2144 -2.71875,-2.3439 -1.39477,-0.2119 -2.25046,-0.3479 -4.03125,-0.625 -4.94307,-0.769 -11.1875,-1.75 -11.1875,-1.75 -3.7e-4,0 -0.0625,0 -0.0625,0 l 0.0625,-1.25 c 0,0 0.0617,10e-5 0.0625,0 0.0205,0 1.06638,-0.068 1.53125,-0.094 0.43762,-0.024 1.30351,-0.072 2.21875,-0.125 0.71653,-0.043 1.70394,-0.1038 2.53125,-0.1563 1.72781,-0.1091 3.62215,-0.2405 5.4375,-0.375 1.85688,-0.1376 3.65077,-0.2934 5.0625,-0.4375 0.82551,-0.084 1.83225,-0.7771 2.53125,-1.7812 1.66586,-13.0497 1.70042,-26.4537 -0.0625,-39.9375 -0.69623,-0.967 -1.66249,-1.6364 -2.46875,-1.7188 -5.58377,-0.57 -16.78125,-1.1875 -16.78125,-1.1875 l 0,-0.031 -0.0312,0 -0.0625,-1.25 c 0,0 6.18161,-0.9573 11.09375,-1.7188 0.002,0.01 -0.002,0.021 0,0.031 1.85056,-0.2881 2.74119,-0.4365 4.1875,-0.6563 0.83805,-0.1273 2.00056,-1.0941 2.65625,-2.2812 -0.66122,-3.4994 -1.43385,-7.0031 -2.34375,-10.5 a 3.8633018,3.8633018 0 0 0 -0.0937,-1.6875 l -5.1875,-18.5313 17,-9.125 a 3.8503849,3.8503849 0 0 0 2.03125,-3.375 l 0.28125,-50.81243 a 3.8503849,3.8503849 0 0 0 -0.15625,-1.0625 l -8.375,-29.1875 a 3.8503849,3.8503849 0 0 0 -3.71875,-2.8125 l -18.90625,0 a 3.8503849,3.8503849 0 0 0 -3.6875,2.78125 l -8.25,27.84375 a 3.8503849,3.8503849 0 0 0 -0.15625,1.03125 l -0.28125,19.75 -2.375,-5.46875 0.0625,-7.15625 -7,-15 -2.875,-3 -6,-11.46875 -9.437502,-21.875 0.781252,-2.625 -2.718752,-7.375 -2.90625,-1.25 -40.5625,-94 a 3.8503849,3.8503849 0 0 0 -3.53125,-2.3125 z m -2.53125,7.6875 55.843752,129.40625 -30.062502,29.9375 a 3.7565048,3.7565048 0 0 0 -0.25,0.3125 c -3.22397,-2.21519 -7.1005,-3.53125 -11.28125,-3.53125 -11.00127,0 -20,8.9987 -20,20 0,11.00098 8.99873,19.99998 20,19.99998 11.00127,0 20.03125,-8.999 20.03125,-19.99998 0,-4.15686 -1.30234,-8.01114 -3.5,-11.21875 a 3.7565048,3.7565048 0 0 0 0.3125,-0.25 l 27.937502,-27.84375 20.09375,46.56248 a 3.8503849,3.8503849 0 0 0 7.375,-1.4687 l 0.5625,-37.15628 7.28125,-24.59375 13.15625,0 7.40625,25.84375 -0.25,47.96878 -17.71875,9.4687 a 3.8503849,3.8503849 0 0 0 -1.875,4.4375 l 6,21.5625 a 3.8633018,3.8633018 0 0 0 0.3125,0.8125 c 0.52182,1.9573 0.99841,3.9164 1.4375,5.875 -3.97517,0.5832 -9.60793,1.4491 -13.78125,2.2813 -0.58668,0.117 -2.40925,2.2272 -2.40625,3.375 0.007,2.5338 0.044,3.7981 0.1875,6.8125 0.0476,1 1.61452,2.698 2.96875,2.8125 4.87295,0.4119 11.82915,0.9348 15.75,1.2187 1.1538,10.5887 1.17158,21.0982 0.0937,31.4063 -3.85943,0.2793 -10.94666,0.8021 -15.875,1.2187 -1.35423,0.1145 -2.92113,1.8125 -2.96875,2.8125 -0.14353,3.0144 -0.1803,4.2787 -0.1875,6.8125 -0.003,1.1478 1.81957,3.258 2.40625,3.375 4.24385,0.8462 9.9964,1.7043 13.9375,2.2813 -4.02304,18.2203 -11.41634,35.4713 -21.71875,50.8437 l -50.125002,-50.0625 a 3.750375,3.750375 0 0 0 -0.4375,-0.375 c 2.25199,-3.2326 3.59375,-7.1309 3.59375,-11.3437 0,-11.0013 -9.02998,-20 -20.03125,-20 -11.00127,0 -20,8.9987 -20,20 0,11.0012 8.99873,20 20,20 4.11597,0 7.96182,-1.2847 11.15625,-3.4375 a 3.750375,3.750375 0 0 0 0.40625,0.4687 l 51.062502,50.9688 c -19.30368,25.853 -47.155262,45.6523 -80.875002,54.6875 -60.68772,16.2612 -122.574702,-7.2985 -158.031248,-54.5 l 50.968748,-50.9063 a 3.750375,3.750375 0 0 0 0.625,-0.8125 c 3.21143,2.2003 7.08472,3.5 11.25,3.5 11.00127,0 20.03125,-8.9988 20.03125,-20 0,-11.0013 -9.02998,-20 -20.03125,-20 -11.00127,0 -20,8.9987 -20,20 0,4.2206 1.3399,8.139 3.59375,11.375 a 3.750375,3.750375 0 0 0 -0.75,0.625 l -50.124998,50.0313 c -8.95759,-13.2995 -15.87343,-28.2914 -20.25,-44.625 -0.56602,-2.1124 -1.05824,-4.2445 -1.53125,-6.375 3.85256,-0.5619 9.86474,-1.4694 14.25,-2.3438 0.58668,-0.117 2.40925,-2.2272 2.40625,-3.375 -0.007,-2.5338 -0.044,-3.7981 -0.1875,-6.8125 -0.0476,-1 -1.61452,-2.698 -2.96875,-2.8125 -5.06072,-0.4278 -12.49341,-0.9517 -16.1875,-1.2187 -1.09894,-10.4522 -1.09704,-20.986 0.0312,-31.4375 3.71271,-0.2684 11.10943,-0.7921 16.15625,-1.2188 1.35422,-0.1145 2.92113,-1.8125 2.96875,-2.8125 0.14353,-3.0143 0.1803,-4.2787 0.1875,-6.8125 0.003,-1.1478 -1.81958,-3.258 -2.40625,-3.375 -4.33468,-0.8642 -10.26886,-1.7448 -14.15625,-2.3125 0.27514,-1.2487 0.56272,-2.5076 0.875,-3.75 a 3.8503849,3.8503849 0 0 0 0.375,-1 l 7.9375,-27.25 17.09375,-26.78123 a 3.8503849,3.8503849 0 0 0 0.25,-0.46875 l 17.843748,-39.78125 27.4375,27.375 a 3.750375,3.750375 0 0 0 0.65625,0.5625 c -2.18561,3.20456 -3.46875,7.06864 -3.46875,11.21875 0,11.00128 8.99873,19.99998 20,19.99998 11.00127,0 20.03125,-8.9987 20.03125,-19.99998 0,-11.0013 -9.02998,-20 -20.03125,-20 -4.20609,0 -8.11409,1.32273 -11.34375,3.5625 a 3.750375,3.750375 0 0 0 -0.5625,-0.65625 l -29.4375,-29.375 3.875,-8.65625 a 3.8503849,3.8503849 0 0 0 0.03125,-0.0625 l 51.8125,-120.9375 7.46875,0 1.1875,1.46875 0.15625,61.75 -4.34375,8 a 3.8503849,3.8503849 0 0 0 -0.46875,1.84375 l 0.1875,44.4375 a 3.8503849,3.8503849 0 0 0 3.875,3.84375 l 68.4375,0.0312 a 3.8503849,3.8503849 0 0 0 3.875,-3.8125 l 0.125,-44.375 a 3.8503849,3.8503849 0 0 0 -0.4375,-1.84375 l -4.375,-8.1875 0.1875,-61.53125 1.46875,-1.625 7.46875,-0.0625 z m 5.75,163.625 c 0.26053,0.034 0.44878,0.16815 0.65625,0.34375 0.41507,0.3512 0.60437,0.50895 1.0625,0.78125 0.3253,0.1934 0.87053,0.2095 1.21875,0.1875 1.67292,-0.8298 3.55102,-1.3125 5.5625,-1.3125 1.99942,0 3.89425,0.4929 5.5625,1.3125 0.33728,0.024 0.88141,0.013 1.21875,-0.1875 0.45811,-0.2723 0.64741,-0.43005 1.0625,-0.78125 0.41504,-0.3511 0.87461,-0.5734 1.65625,-0.0625 0.78183,0.5103 2.19095,1.906 2.65625,2.6875 0.46537,0.7815 0.27715,1.303 0,1.6875 -0.27696,0.3845 -0.42928,0.6216 -0.75,1.0625 -0.24848,0.3417 -0.22338,0.96245 -0.1875,1.28125 0.80967,1.6602 1.28125,3.5134 1.28125,5.5 0,1.9716 -0.45082,3.81718 -1.25,5.46878 -0.0245,0.2813 -0.0661,0.9385 0.15625,1.3125 0.27231,0.4582 0.39885,0.6475 0.75,1.0625 0.35129,0.415 0.57296,0.8745 0.0625,1.6562 -0.51025,0.7818 -1.87476,2.1911 -2.65625,2.6563 -0.78142,0.4654 -1.33415,0.2772 -1.71875,0 -0.38445,-0.2769 -0.62155,-0.4606 -1.0625,-0.7813 -0.34793,-0.2531 -0.97296,-0.192 -1.28125,-0.1562 -1.66116,0.8106 -3.51347,1.2812 -5.5,1.2812 -1.99657,0 -3.86752,-0.4629 -5.53125,-1.2812 -0.34096,-0.035 -0.92502,-0.08 -1.25,0.1562 -0.44097,0.3207 -0.67805,0.5044 -1.0625,0.7813 -0.38457,0.2772 -0.90606,0.4654 -1.6875,0 -0.78152,-0.4653 -2.14595,-1.8745 -2.65625,-2.6563 -0.51039,-0.7817 -0.31985,-1.2411 0.03125,-1.6562 0.35113,-0.4151 0.50891,-0.6044 0.78125,-1.0625 0.22232,-0.374 0.18079,-1.0312 0.15625,-1.3125 -0.79557,-1.6516 -1.25,-3.49718 -1.25,-5.46878 0,-1.9716 0.45443,-3.81685 1.25,-5.46875 0.0356,-0.299 0.1005,-0.9595 -0.15625,-1.3125 -0.32074,-0.4409 -0.50428,-0.678 -0.78125,-1.0625 -0.27712,-0.3846 -0.46535,-0.906 0,-1.6875 0.46528,-0.7815 1.90572,-2.1772 2.6875,-2.6875 0.39082,-0.2552 0.70822,-0.31525 0.96875,-0.28125 z m -113.4375,0.0625 c 0.26053,0.034 0.44878,0.16815 0.65625,0.34375 0.41507,0.3512 0.60437,0.50895 1.0625,0.78125 0.3253,0.1934 0.87053,0.2095 1.21875,0.1875 1.67292,-0.8298 3.55102,-1.3125 5.5625,-1.3125 1.99942,0 3.89425,0.4929 5.5625,1.3125 0.33728,0.024 0.88141,0.013 1.21875,-0.1875 0.45811,-0.2723 0.64741,-0.43005 1.0625,-0.78125 0.41504,-0.3511 0.87461,-0.5734 1.65625,-0.0625 0.78183,0.5103 2.19095,1.906 2.65625,2.6875 0.46537,0.7815 0.27715,1.303 0,1.6875 -0.27696,0.3845 -0.42928,0.6216 -0.75,1.0625 -0.24848,0.3417 -0.22338,0.96245 -0.1875,1.28125 0.80967,1.6602 1.28125,3.5134 1.28125,5.5 0,1.9716 -0.45082,3.81688 -1.25,5.46878 -0.0245,0.2813 -0.0661,0.9385 0.15625,1.3125 0.27231,0.4582 0.39885,0.6475 0.75,1.0625 0.35129,0.415 0.57296,0.8745 0.0625,1.6562 -0.51025,0.7818 -1.87476,2.1911 -2.65625,2.6563 -0.78142,0.4654 -1.33415,0.2772 -1.71875,0 -0.38445,-0.2769 -0.62155,-0.4606 -1.0625,-0.7813 -0.34793,-0.2531 -0.97296,-0.192 -1.28125,-0.1562 -1.66116,0.8106 -3.51347,1.2812 -5.5,1.2812 -1.99657,0 -3.86752,-0.4629 -5.53125,-1.2812 -0.34096,-0.035 -0.92502,-0.08 -1.25,0.1562 -0.44097,0.3207 -0.67805,0.5044 -1.0625,0.7813 -0.38457,0.2772 -0.90606,0.4654 -1.6875,0 -0.78152,-0.4653 -2.14595,-1.8745 -2.65625,-2.6563 -0.51039,-0.7817 -0.31985,-1.2411 0.03125,-1.6562 0.35113,-0.4151 0.50891,-0.6044 0.78125,-1.0625 0.22232,-0.374 0.18079,-1.0312 0.15625,-1.3125 -0.79557,-1.6519 -1.25,-3.49718 -1.25,-5.46878 0,-1.9716 0.45443,-3.81685 1.25,-5.46875 0.0356,-0.299 0.1005,-0.9595 -0.15625,-1.3125 -0.32074,-0.4409 -0.50428,-0.678 -0.78125,-1.0625 -0.27712,-0.3846 -0.46535,-0.906 0,-1.6875 0.46528,-0.7815 1.90572,-2.1772 2.6875,-2.6875 0.39082,-0.2552 0.70822,-0.31525 0.96875,-0.28125 z m -0.03125,113.37498 c 0.26053,0.034 0.44878,0.1681 0.65625,0.3438 0.41507,0.3511 0.60437,0.5089 1.0625,0.7812 0.3253,0.1934 0.87053,0.2095 1.21875,0.1875 1.67292,-0.8298 3.55102,-1.3125 5.5625,-1.3125 1.99942,0 3.89425,0.4929 5.5625,1.3125 0.33728,0.024 0.88141,0.013 1.21875,-0.1875 0.45811,-0.2723 0.64741,-0.4301 1.0625,-0.7812 0.41504,-0.3512 0.87461,-0.5729 1.65625,-0.062 0.78183,0.5103 2.19095,1.906 2.65625,2.6875 0.46537,0.7814 0.27715,1.3029 0,1.6875 -0.27696,0.3844 -0.42928,0.6215 -0.75,1.0625 -0.24848,0.3416 -0.22338,0.9625 -0.1875,1.2812 0.80967,1.6603 1.28125,3.5135 1.28125,5.5 0,1.9716 -0.45082,3.8169 -1.25,5.4688 -0.02454,0.2812 -0.06609,0.9384 0.15625,1.3125 0.27231,0.4581 0.39885,0.6474 0.75,1.0625 0.35129,0.4149 0.57296,0.8745 0.0625,1.6562 -0.51025,0.7818 -1.87476,2.191 -2.65625,2.6563 -0.78142,0.4653 -1.33415,0.2771 -1.71875,0 -0.38445,-0.277 -0.62155,-0.4605 -1.0625,-0.7813 -0.34793,-0.2531 -0.97296,-0.1921 -1.28125,-0.1562 -1.66116,0.8106 -3.51347,1.2812 -5.5,1.2812 -1.99657,0 -3.86752,-0.4629 -5.53125,-1.2812 -0.34096,-0.035 -0.92502,-0.08 -1.25,0.1562 -0.44097,0.3207 -0.67805,0.5043 -1.0625,0.7813 -0.38457,0.2771 -0.90606,0.4653 -1.6875,0 -0.78152,-0.4653 -2.14595,-1.8744 -2.65625,-2.6563 -0.51039,-0.7816 -0.3199,-1.2412 0.03125,-1.6562 0.35113,-0.4151 0.50891,-0.6044 0.78125,-1.0625 0.22232,-0.3741 0.18079,-1.0312 0.15625,-1.3125 -0.79557,-1.6519 -1.25,-3.4972 -1.25,-5.4688 0,-1.9716 0.45443,-3.8169 1.25,-5.4687 0.03563,-0.2991 0.1005,-0.9595 -0.15625,-1.3125 -0.32074,-0.441 -0.50428,-0.6781 -0.78125,-1.0625 -0.27712,-0.3846 -0.46535,-0.9061 0,-1.6875 0.46528,-0.7815 1.90572,-2.1773 2.6875,-2.6875 0.39082,-0.2552 0.70822,-0.3153 0.96875,-0.2813 z m 130.46875,0 c 0.26448,-0.035 0.57793,0.057 0.96875,0.3125 0.78183,0.5103 2.19095,1.906 2.65625,2.6875 0.46537,0.7815 0.27715,1.303 0,1.6875 -0.27696,0.3845 -0.42928,0.6216 -0.75,1.0625 -0.24848,0.3417 -0.22338,0.9625 -0.1875,1.2813 0.80967,1.6602 1.28125,3.5134 1.28125,5.5 0,1.9716 -0.45082,3.8169 -1.25,5.4687 -0.0245,0.2813 -0.0661,0.9385 0.15625,1.3125 0.27231,0.4582 0.39885,0.6475 0.75,1.0625 0.35129,0.415 0.57296,0.8746 0.0625,1.6563 -0.51025,0.7818 -1.87476,2.191 -2.65625,2.6562 -0.78142,0.4654 -1.33415,0.2772 -1.71875,0 -0.38445,-0.2769 -0.62155,-0.4605 -1.0625,-0.7812 -0.34793,-0.2531 -0.97296,-0.1921 -1.28125,-0.1563 -1.66116,0.8106 -3.51347,1.2813 -5.5,1.2813 -1.99657,0 -3.86752,-0.463 -5.53125,-1.2813 -0.34096,-0.035 -0.92502,-0.08 -1.25,0.1563 -0.44097,0.3207 -0.67805,0.5043 -1.0625,0.7812 -0.38457,0.2772 -0.90606,0.4654 -1.6875,0 -0.78152,-0.4653 -2.14595,-1.8744 -2.65625,-2.6562 -0.51039,-0.7817 -0.31985,-1.2412 0.03125,-1.6563 0.35113,-0.4151 0.50891,-0.6044 0.78125,-1.0625 0.22232,-0.374 0.18079,-1.0312 0.15625,-1.3125 -0.79557,-1.6518 -1.25,-3.4971 -1.25,-5.4687 0,-1.9716 0.45443,-3.8169 1.25,-5.4688 0.0356,-0.299 0.1005,-0.9595 -0.15625,-1.3125 -0.32074,-0.4409 -0.50428,-0.678 -0.78125,-1.0625 -0.27712,-0.3846 -0.46535,-0.906 0,-1.6875 0.46528,-0.7815 1.90572,-2.1772 2.6875,-2.6875 0.39082,-0.2552 0.70822,-0.3152 0.96875,-0.2812 0.26053,0.034 0.44878,0.1681 0.65625,0.3437 0.41507,0.3512 0.60437,0.509 1.0625,0.7813 0.3253,0.1934 0.87053,0.2095 1.21875,0.1875 1.67292,-0.8298 3.55102,-1.3125 5.5625,-1.3125 1.99942,0 3.89425,0.4929 5.5625,1.3125 0.33728,0.023 0.88141,0.013 1.21875,-0.1875 0.45811,-0.2723 0.64741,-0.4301 1.0625,-0.7813 0.20752,-0.1755 0.42302,-0.3395 0.6875,-0.375 z"
       id="path3857-3"
       inkscape:connector-curvature="0" />
  </g>
</svg>
