999
dxfrw 0.5.11
0
SECTION
2
HEADER
9
$ACADVER
1
AC1021
9
$HANDSEED
5
20000
9
$DWGCODEPAGE
3
ANSI_1252
9
$INSBASE
10
0
20
0
30
0
9
$EXTMIN
10
-50
20
-54.1447010347
30
0
9
$EXTMAX
10
50
20
80
30
0
9
$LIMMIN
10
0
20
0
9
$LIMMAX
10
420
20
297
9
$ORTHOMODE
70
0
9
$LTSCALE
40
1
9
$TEXTSTYLE
7
STANDARD
9
$CLAYER
8
millennium_falcon
9
$DIMASZ
40
2.5
9
$DIMLFAC
40
1
9
$DIMSCALE
40
1
9
$DIMEXO
40
0.625
9
$DIMEXE
40
1.25
9
$DIMTXT
40
2.5
9
$DIMTSZ
40
0
9
$DIMAUNIT
70
0
9
$DIMADEC
70
0
9
$DIMLUNIT
70
2
9
$DIMSTYLE
2
Standard
9
$DIMGAP
40
0.625
9
$DIMTIH
70
0
9
$LUNITS
70
2
9
$LUPREC
70
4
9
$AUNITS
70
0
9
$AUPREC
70
2
9
$SPLINESEGS
70
8
9
$GRIDMODE
70
1
9
$SNAPSTYLE
70
0
9
$PINSBASE
10
0
20
0
30
0
9
$PLIMMIN
10
0
20
0
9
$PLIMMAX
10
210
20
297
9
$INSUNITS
70
0
9
$PSVPSCALE
40
1
0
ENDSEC
0
SECTION
2
CLASSES
0
ENDSEC
0
SECTION
2
TABLES
0
TABLE
2
VPORT
5
8
330
0
100
AcDbSymbolTable
70
1
0
VPORT
5
31
330
2
100
AcDbSymbolTableRecord
100
AcDbViewportTableRecord
2
*ACTIVE
70
0
10
0
20
0
11
1
21
1
12
62.2444215587
22
48.163190745
13
0
23
0
14
10
24
10
15
10
25
10
16
0
26
0
36
1
17
0
27
0
37
0
40
158.391424312
41
1.76330690827
42
50
43
0
44
0
50
0
51
0
71
0
72
100
73
1
74
3
75
0
76
1
77
0
78
0
281
0
65
1
110
0
120
0
130
0
111
1
121
0
131
0
112
0
122
1
132
0
79
0
146
0
348
10020
60
7
61
5
292
1
282
1
141
0
142
0
63
250
421
3358443
0
ENDTAB
0
TABLE
2
LTYPE
5
5
330
0
100
AcDbSymbolTable
70
4
0
LTYPE
5
14
330
5
100
AcDbSymbolTableRecord
100
AcDbLinetypeTableRecord
2
ByBlock
70
0
3

72
65
73
0
40
0
0
LTYPE
5
15
330
5
100
AcDbSymbolTableRecord
100
AcDbLinetypeTableRecord
2
ByLayer
70
0
3

72
65
73
0
40
0
0
LTYPE
5
16
330
5
100
AcDbSymbolTableRecord
100
AcDbLinetypeTableRecord
2
Continuous
70
0
3
Solid line
72
65
73
0
40
0
0
LTYPE
5
32
330
5
100
AcDbSymbolTableRecord
100
AcDbLinetypeTableRecord
2
DOT
70
0
3
Dot . . . . . . . . . . . . . . . . . . . . . .
72
65
73
2
40
6.35
49
0
74
0
49
-6.35
74
0
0
LTYPE
5
33
330
5
100
AcDbSymbolTableRecord
100
AcDbLinetypeTableRecord
2
DOT2
70
0
3
Dot (.5x) .....................................
72
65
73
2
40
3.175
49
0
74
0
49
-3.175
74
0
0
LTYPE
5
34
330
5
100
AcDbSymbolTableRecord
100
AcDbLinetypeTableRecord
2
DOTX2
70
0
3
Dot (2x) .  .  .  .  .  .  .  .  .  .  .  .  .
72
65
73
2
40
12.7
49
0
74
0
49
-12.7
74
0
0
LTYPE
5
35
330
5
100
AcDbSymbolTableRecord
100
AcDbLinetypeTableRecord
2
DASHED
70
0
3
Dot . . . . . . . . . . . . . . . . . . . . . .
72
65
73
2
40
19.05
49
12.7
74
0
49
-6.35
74
0
0
LTYPE
5
36
330
5
100
AcDbSymbolTableRecord
100
AcDbLinetypeTableRecord
2
DASHED2
70
0
3
Dashed (.5x) _ _ _ _ _ _ _ _ _ _ _ _ _ _ _ _ _
72
65
73
2
40
9.525
49
6.35
74
0
49
-3.175
74
0
0
LTYPE
5
37
330
5
100
AcDbSymbolTableRecord
100
AcDbLinetypeTableRecord
2
DASHEDX2
70
0
3
Dashed (2x) ____  ____  ____  ____  ____  ___
72
65
73
2
40
38.1
49
25.4
74
0
49
-12.7
74
0
0
LTYPE
5
38
330
5
100
AcDbSymbolTableRecord
100
AcDbLinetypeTableRecord
2
DASHDOT
70
0
3
Dash dot __ . __ . __ . __ . __ . __ . __ . __
72
65
73
4
40
25.4
49
12.7
74
0
49
-6.35
74
0
49
0
74
0
49
-6.35
74
0
0
LTYPE
5
39
330
5
100
AcDbSymbolTableRecord
100
AcDbLinetypeTableRecord
2
DASHDOT2
70
0
3
Dash dot (.5x) _._._._._._._._._._._._._._._.
72
65
73
4
40
12.7
49
6.35
74
0
49
-3.175
74
0
49
0
74
0
49
-3.175
74
0
0
LTYPE
5
3A
330
5
100
AcDbSymbolTableRecord
100
AcDbLinetypeTableRecord
2
DASHDOTX2
70
0
3
Dash dot (2x) ____  .  ____  .  ____  .  ___
72
65
73
4
40
50.8
49
25.4
74
0
49
-12.7
74
0
49
0
74
0
49
-12.7
74
0
0
LTYPE
5
3B
330
5
100
AcDbSymbolTableRecord
100
AcDbLinetypeTableRecord
2
DIVIDE
70
0
3
Divide ____ . . ____ . . ____ . . ____ . . ____
72
65
73
6
40
31.75
49
12.7
74
0
49
-6.35
74
0
49
0
74
0
49
-6.35
74
0
49
0
74
0
49
-6.35
74
0
0
LTYPE
5
3C
330
5
100
AcDbSymbolTableRecord
100
AcDbLinetypeTableRecord
2
DIVIDE2
70
0
3
Divide (.5x) __..__..__..__..__..__..__..__.._
72
65
73
6
40
15.875
49
6.35
74
0
49
-3.175
74
0
49
0
74
0
49
-3.175
74
0
49
0
74
0
49
-3.175
74
0
0
LTYPE
5
3D
330
5
100
AcDbSymbolTableRecord
100
AcDbLinetypeTableRecord
2
DIVIDEX2
70
0
3
Divide (2x) ________  .  .  ________  .  .  _
72
65
73
6
40
63.5
49
25.4
74
0
49
-12.7
74
0
49
0
74
0
49
-12.7
74
0
49
0
74
0
49
-12.7
74
0
0
LTYPE
5
3E
330
5
100
AcDbSymbolTableRecord
100
AcDbLinetypeTableRecord
2
BORDER
70
0
3
Border __ __ . __ __ . __ __ . __ __ . __ __ .
72
65
73
6
40
44.45
49
12.7
74
0
49
-6.35
74
0
49
12.7
74
0
49
-6.35
74
0
49
0
74
0
49
-6.35
74
0
0
LTYPE
5
3F
330
5
100
AcDbSymbolTableRecord
100
AcDbLinetypeTableRecord
2
BORDER2
70
0
3
Border (.5x) __.__.__.__.__.__.__.__.__.__.__.
72
65
73
6
40
22.225
49
6.35
74
0
49
-3.175
74
0
49
6.35
74
0
49
-3.175
74
0
49
0
74
0
49
-3.175
74
0
0
LTYPE
5
40
330
5
100
AcDbSymbolTableRecord
100
AcDbLinetypeTableRecord
2
BORDERX2
70
0
3
Border (2x) ____  ____  .  ____  ____  .  ___
72
65
73
6
40
88.9
49
25.4
74
0
49
-12.7
74
0
49
25.4
74
0
49
-12.7
74
0
49
0
74
0
49
-12.7
74
0
0
LTYPE
5
41
330
5
100
AcDbSymbolTableRecord
100
AcDbLinetypeTableRecord
2
CENTER
70
0
3
Center ____ _ ____ _ ____ _ ____ _ ____ _ ____
72
65
73
4
40
50.8
49
31.75
74
0
49
-6.35
74
0
49
6.35
74
0
49
-6.35
74
0
0
LTYPE
5
42
330
5
100
AcDbSymbolTableRecord
100
AcDbLinetypeTableRecord
2
CENTER2
70
0
3
Center (.5x) ___ _ ___ _ ___ _ ___ _ ___ _ ___
72
65
73
4
40
28.575
49
19.05
74
0
49
-3.175
74
0
49
3.175
74
0
49
-3.175
74
0
0
LTYPE
5
43
330
5
100
AcDbSymbolTableRecord
100
AcDbLinetypeTableRecord
2
CENTERX2
70
0
3
Center (2x) ________  __  ________  __  _____
72
65
73
4
40
101.6
49
63.5
74
0
49
-12.7
74
0
49
12.7
74
0
49
-12.7
74
0
0
ENDTAB
0
TABLE
2
LAYER
5
2
330
0
100
AcDbSymbolTable
70
1
0
LAYER
5
10
330
2
100
AcDbSymbolTableRecord
100
AcDbLayerTableRecord
2
0
70
0
62
7
6
CONTINUOUS
370
0
390
F
0
LAYER
5
44
330
2
100
AcDbSymbolTableRecord
100
AcDbLayerTableRecord
2
build
70
0
62
2
6
CENTER2
370
0
390
F
0
LAYER
5
45
330
2
100
AcDbSymbolTableRecord
100
AcDbLayerTableRecord
2
cheerson
70
0
62
1
6
CONTINUOUS
370
0
390
F
0
LAYER
5
46
330
2
100
AcDbSymbolTableRecord
100
AcDbLayerTableRecord
2
fixation
70
0
62
6
6
CONTINUOUS
370
0
390
F
0
LAYER
5
47
330
2
100
AcDbSymbolTableRecord
100
AcDbLayerTableRecord
2
millennium_falcon
70
0
62
3
6
CONTINUOUS
370
0
390
F
0
ENDTAB
0
TABLE
2
STYLE
5
3
330
0
100
AcDbSymbolTable
70
3
0
STYLE
5
48
330
2
100
AcDbSymbolTableRecord
100
AcDbTextStyleTableRecord
2
Standard
70
0
40
0
41
1
50
0
71
0
42
1
3
txt
4

0
ENDTAB
0
TABLE
2
VIEW
5
6
330
0
100
AcDbSymbolTable
70
0
0
ENDTAB
0
TABLE
2
UCS
5
7
330
0
100
AcDbSymbolTable
70
0
0
ENDTAB
0
TABLE
2
APPID
5
9
330
0
100
AcDbSymbolTable
70
1
0
APPID
5
12
330
9
100
AcDbSymbolTableRecord
100
AcDbRegAppTableRecord
2
ACAD
70
0
0
ENDTAB
0
TABLE
2
DIMSTYLE
5
A
330
0
100
AcDbSymbolTable
70
1
100
AcDbDimStyleTable
71
1
0
DIMSTYLE
105
49
330
A
100
AcDbSymbolTableRecord
100
AcDbDimStyleTableRecord
2
Standard
70
0
40
1
41
2.5
42
0.625
43
0.38
44
1.25
45
0
46
0
47
0
48
0
140
2.5
141
0.09
142
0
143
25.4
144
1
145
0
146
1
147
0.625
148
0
71
0
72
0
73
0
74
1
75
0
76
0
77
0
78
0
79
0
170
0
171
2
172
0
173
0
174
0
175
0
176
0
177
0
178
0
179
0
271
4
272
4
273
2
274
2
275
0
276
0
277
2
278
46
279
0
280
0
281
0
282
0
283
1
284
0
285
0
286
0
288
0
289
3
340
Standard
341

371
-2
372
-2
0
ENDTAB
0
TABLE
2
BLOCK_RECORD
5
1
330
0
100
AcDbSymbolTable
70
2
0
BLOCK_RECORD
5
1F
330
1
100
AcDbSymbolTableRecord
100
AcDbBlockTableRecord
2
*Model_Space
70
0
280
1
281
0
0
BLOCK_RECORD
5
1E
330
1
100
AcDbSymbolTableRecord
100
AcDbBlockTableRecord
2
*Paper_Space
70
0
280
1
281
0
0
ENDTAB
0
ENDSEC
0
SECTION
2
BLOCKS
0
BLOCK
5
20
330
1F
100
AcDbEntity
8
0
100
AcDbBlockBegin
2
*Model_Space
70
0
10
0
20
0
30
0
3
*Model_Space
1

0
ENDBLK
5
21
330
1F
100
AcDbEntity
8
0
100
AcDbBlockEnd
0
BLOCK
5
1C
330
1B
100
AcDbEntity
8
0
100
AcDbBlockBegin
2
*Paper_Space
70
0
10
0
20
0
30
0
3
*Paper_Space
1

0
ENDBLK
5
1D
330
1F
100
AcDbEntity
8
0
100
AcDbBlockEnd
0
ENDSEC
0
SECTION
2
ENTITIES
0
LINE
5
4A
100
AcDbEntity
8
cheerson
6
ByLayer
62
256
370
-1
100
AcDbLine
10
-9
20
9
11
9
21
9
0
LINE
5
4B
100
AcDbEntity
8
cheerson
6
ByLayer
62
256
370
-1
100
AcDbLine
10
9
20
9
11
9
21
-9
0
LINE
5
4C
100
AcDbEntity
8
cheerson
6
ByLayer
62
256
370
-1
100
AcDbLine
10
9
20
-9
11
-9
21
-9
0
LINE
5
4D
100
AcDbEntity
8
cheerson
6
ByLayer
62
256
370
-1
100
AcDbLine
10
-9
20
-9
11
-9
21
9
0
ARC
5
4E
100
AcDbEntity
8
cheerson
6
ByLayer
62
256
370
-1
100
AcDbCircle
10
-7.1054273576e-15
20
25.1022907321
40
15
100
AcDbArc
50
224.999998712
51
315.000001288
0
ARC
5
4F
100
AcDbEntity
8
cheerson
6
ByLayer
62
256
370
-1
100
AcDbCircle
10
25.1022907321
20
0
40
15
100
AcDbArc
50
135.000001115
51
224.999998885
0
ARC
5
50
100
AcDbEntity
8
cheerson
6
ByLayer
62
256
370
-1
100
AcDbCircle
10
0
20
-25.1022907321
40
15
100
AcDbArc
50
45.0000012879
51
134.999998712
0
ARC
5
51
100
AcDbEntity
8
cheerson
6
ByLayer
62
256
370
-1
100
AcDbCircle
10
-25.1022907321
20
3.78956125739e-15
40
15
100
AcDbArc
50
315.000000644
51
44.9999990893
0
CIRCLE
5
52
100
AcDbEntity
8
cheerson
6
ByLayer
62
256
370
-1
100
AcDbCircle
10
-16
20
16
40
5
0
CIRCLE
5
53
100
AcDbEntity
8
cheerson
6
ByLayer
62
256
370
-1
100
AcDbCircle
10
16
20
16
40
5
0
CIRCLE
5
54
100
AcDbEntity
8
cheerson
6
ByLayer
62
256
370
-1
100
AcDbCircle
10
16
20
-16
40
5
0
CIRCLE
5
55
100
AcDbEntity
8
cheerson
6
ByLayer
62
256
370
-1
100
AcDbCircle
10
-16
20
-16
40
5
0
LINE
5
56
100
AcDbEntity
8
cheerson
6
ByLayer
62
256
370
-1
100
AcDbLine
10
-14.9917906955
20
11.102703399
11
-14.4956892809
21
10.6066019844
0
LINE
5
57
100
AcDbEntity
8
cheerson
6
ByLayer
62
256
370
-1
100
AcDbLine
10
-11.102703399
20
14.9917906955
11
-10.6066014794
21
14.4956887759
0
LINE
5
58
100
AcDbEntity
8
cheerson
6
ByLayer
62
256
370
-1
100
AcDbLine
10
10.6066019562
20
14.4956892527
11
11.102703399
21
14.9917906955
0
LINE
5
59
100
AcDbEntity
8
cheerson
6
ByLayer
62
256
370
-1
100
AcDbLine
10
14.4956892208
20
10.6066019243
11
14.9917906955
21
11.102703399
0
LINE
5
5A
100
AcDbEntity
8
cheerson
6
ByLayer
62
256
370
-1
100
AcDbLine
10
14.4956891335
20
-10.606601837
11
14.9917906955
21
-11.102703399
0
LINE
5
5B
100
AcDbEntity
8
cheerson
6
ByLayer
62
256
370
-1
100
AcDbLine
10
10.6066017178
20
-14.4956890143
11
11.102703399
21
-14.9917906955
0
LINE
5
5C
100
AcDbEntity
8
cheerson
6
ByLayer
62
256
370
-1
100
AcDbLine
10
-11.102703399
20
-14.9917906955
11
-10.6066018864
21
-14.4956891829
0
LINE
5
5D
100
AcDbEntity
8
cheerson
6
ByLayer
62
256
370
-1
100
AcDbLine
10
-14.9917906955
20
-11.102703399
11
-14.4956890143
21
-10.6066017178
0
CIRCLE
5
5E
100
AcDbEntity
8
cheerson
6
ByLayer
62
256
370
-1
100
AcDbCircle
10
16
20
16
40
15
0
CIRCLE
5
5F
100
AcDbEntity
8
cheerson
6
ByLayer
62
256
370
-1
100
AcDbCircle
10
16
20
-16
40
15
0
CIRCLE
5
60
100
AcDbEntity
8
cheerson
6
ByLayer
62
256
370
-1
100
AcDbCircle
10
-16
20
-16
40
15
0
CIRCLE
5
61
100
AcDbEntity
8
cheerson
6
ByLayer
62
256
370
-1
100
AcDbCircle
10
-16
20
16
40
15
0
ARC
5
62
100
AcDbEntity
8
fixation
6
ByLayer
62
256
370
-1
100
AcDbCircle
10
-13.5473103505
20
19.1597964307
40
0.5
100
AcDbArc
50
52.1807557815
51
135
0
ARC
5
63
100
AcDbEntity
8
fixation
6
ByLayer
62
256
370
-1
100
AcDbCircle
10
-19.1597964307
20
18.4526896495
40
0.5
100
AcDbArc
50
142.180755781
51
225
0
ARC
5
64
100
AcDbEntity
8
fixation
6
ByLayer
62
256
370
-1
100
AcDbCircle
10
-18.4526896495
20
12.8402035693
40
0.5
100
AcDbArc
50
232.180755781
51
315
0
ARC
5
65
100
AcDbEntity
8
fixation
6
ByLayer
62
256
370
-1
100
AcDbCircle
10
-12.8402035693
20
13.5473103505
40
0.5
100
AcDbArc
50
322.180755781
51
45
0
ARC
5
66
100
AcDbEntity
8
fixation
6
ByLayer
62
256
370
-1
100
AcDbCircle
10
-12.8402035693
20
18.4526896495
40
0.5
100
AcDbArc
50
315
51
37.8192442185
0
ARC
5
67
100
AcDbEntity
8
fixation
6
ByLayer
62
256
370
-1
100
AcDbCircle
10
-13.5473103505
20
12.8402035693
40
0.5
100
AcDbArc
50
225
51
307.819244219
0
ARC
5
68
100
AcDbEntity
8
fixation
6
ByLayer
62
256
370
-1
100
AcDbCircle
10
-19.1597964307
20
13.5473103505
40
0.5
100
AcDbArc
50
135
51
217.819244219
0
ARC
5
69
100
AcDbEntity
8
fixation
6
ByLayer
62
256
370
-1
100
AcDbCircle
10
-18.4526896495
20
19.1597964307
40
0.5
100
AcDbArc
50
45
51
127.819244219
0
ARC
5
6A
100
AcDbEntity
8
fixation
6
ByLayer
62
256
370
-1
100
AcDbCircle
10
-16
20
16
40
4.5
100
AcDbArc
50
37.8192528046
51
52.1807557815
0
ARC
5
6B
100
AcDbEntity
8
fixation
6
ByLayer
62
256
370
-1
100
AcDbCircle
10
-16
20
16
40
4.5
100
AcDbArc
50
307.819244983
51
322.180755781
0
ARC
5
6C
100
AcDbEntity
8
fixation
6
ByLayer
62
256
370
-1
100
AcDbCircle
10
-16
20
16
40
4.5
100
AcDbArc
50
217.819252805
51
232.180755781
0
ARC
5
6D
100
AcDbEntity
8
fixation
6
ByLayer
62
256
370
-1
100
AcDbCircle
10
-16
20
16
40
4.5
100
AcDbArc
50
127.819244983
51
142.180755781
0
ARC
5
6E
100
AcDbEntity
8
fixation
6
ByLayer
62
256
370
-1
100
AcDbCircle
10
-12.236975005
20
17.6417046514
40
0.5
100
AcDbArc
50
135
51
203.570323783
0
ARC
5
6F
100
AcDbEntity
8
fixation
6
ByLayer
62
256
370
-1
100
AcDbCircle
10
-14.3582953486
20
19.763024995
40
0.5
100
AcDbArc
50
246.429676217
51
315
0
ARC
5
70
100
AcDbEntity
8
fixation
6
ByLayer
62
256
370
-1
100
AcDbCircle
10
-17.6417046514
20
19.763024995
40
0.5
100
AcDbArc
50
225
51
293.570323783
0
ARC
5
71
100
AcDbEntity
8
fixation
6
ByLayer
62
256
370
-1
100
AcDbCircle
10
-19.763024995
20
17.6417046514
40
0.5
100
AcDbArc
50
336.429676217
51
45
0
ARC
5
72
100
AcDbEntity
8
fixation
6
ByLayer
62
256
370
-1
100
AcDbCircle
10
-19.763024995
20
14.3582953486
40
0.5
100
AcDbArc
50
315
51
23.570323783
0
ARC
5
73
100
AcDbEntity
8
fixation
6
ByLayer
62
256
370
-1
100
AcDbCircle
10
-17.6417046514
20
12.236975005
40
0.5
100
AcDbArc
50
66.429676217
51
135
0
LINE
5
74
100
AcDbEntity
8
fixation
6
ByLayer
62
256
370
-1
100
AcDbLine
10
-13.9008637411
20
19.5133498213
11
-14.0047421964
21
19.409471366
0
LINE
5
75
100
AcDbEntity
8
fixation
6
ByLayer
62
256
370
-1
100
AcDbLine
10
-12.5905283956
20
17.995258042
11
-12.4866502209
21
18.0991362167
0
ARC
5
76
100
AcDbEntity
8
fixation
6
ByLayer
62
256
370
-1
100
AcDbCircle
10
-14.3582953486
20
12.236975005
40
0.5
100
AcDbArc
50
45
51
113.570323783
0
ARC
5
77
100
AcDbEntity
8
fixation
6
ByLayer
62
256
370
-1
100
AcDbCircle
10
-12.236975005
20
14.3582953486
40
0.5
100
AcDbArc
50
156.429676217
51
225
0
ARC
5
78
100
AcDbEntity
8
fixation
6
ByLayer
62
256
370
-1
100
AcDbCircle
10
-16
20
16
40
3.60555127546
100
AcDbArc
50
336.429691957
51
23.5703039591
0
LINE
5
79
100
AcDbEntity
8
fixation
6
ByLayer
62
256
370
-1
100
AcDbLine
10
-12.5905283956
20
14.004741958
11
-12.4866501787
21
13.9008637411
0
LINE
5
7A
100
AcDbEntity
8
fixation
6
ByLayer
62
256
370
-1
100
AcDbLine
10
-14.004741958
20
12.5905283956
11
-13.9008637833
21
12.4866502209
0
ARC
5
7B
100
AcDbEntity
8
fixation
6
ByLayer
62
256
370
-1
100
AcDbCircle
10
-16
20
16
40
3.60555127546
100
AcDbArc
50
246.429725449
51
293.570363419
0
LINE
5
7C
100
AcDbEntity
8
fixation
6
ByLayer
62
256
370
-1
100
AcDbLine
10
-18.0991362589
20
12.4866501787
11
-17.9952578036
21
12.590528634
0
LINE
5
7D
100
AcDbEntity
8
fixation
6
ByLayer
62
256
370
-1
100
AcDbLine
10
-19.4094712672
20
14.0047422952
11
-19.5133497791
21
13.9008637833
0
ARC
5
7E
100
AcDbEntity
8
fixation
6
ByLayer
62
256
370
-1
100
AcDbCircle
10
-16
20
16
40
3.60555127546
100
AcDbArc
50
156.429687909
51
203.570313658
0
ARC
5
7F
100
AcDbEntity
8
fixation
6
ByLayer
62
256
370
-1
100
AcDbCircle
10
-16
20
16
40
3.60555127546
100
AcDbArc
50
66.4297175165
51
113.570365082
0
LINE
5
80
100
AcDbEntity
8
fixation
6
ByLayer
62
256
370
-1
100
AcDbLine
10
-17.995258042
20
19.4094716044
11
-18.0991362589
21
19.5133498213
0
LINE
5
81
100
AcDbEntity
8
fixation
6
ByLayer
62
256
370
-1
100
AcDbLine
10
-19.4094716044
20
17.995258042
11
-19.5133498213
21
18.0991362589
0
CIRCLE
5
82
100
AcDbEntity
8
fixation
6
ByLayer
62
256
370
-1
100
AcDbCircle
10
-16
20
16
40
5.5
0
LINE
5
83
100
AcDbEntity
8
build
6
ByLayer
62
256
370
-1
100
AcDbLine
10
0
20
80
11
0
21
-50
0
LINE
5
84
100
AcDbEntity
8
build
6
ByLayer
62
256
370
-1
100
AcDbLine
10
-50
20
0
11
50
21
0
0
LINE
5
85
100
AcDbEntity
8
build
6
ByLayer
62
256
370
-1
100
AcDbLine
10
-40
20
40
11
40
21
-40
0
LINE
5
86
100
AcDbEntity
8
build
6
ByLayer
62
256
370
-1
100
AcDbLine
10
-40
20
-40
11
50
21
50
0
ARC
5
87
100
AcDbEntity
8
fixation
6
ByLayer
62
256
370
-1
100
AcDbCircle
10
18.4526896495
20
19.1597964307
40
0.5
100
AcDbArc
50
52.1807557815
51
135
0
ARC
5
88
100
AcDbEntity
8
fixation
6
ByLayer
62
256
370
-1
100
AcDbCircle
10
12.8402035693
20
18.4526896495
40
0.5
100
AcDbArc
50
142.180755781
51
225
0
ARC
5
89
100
AcDbEntity
8
fixation
6
ByLayer
62
256
370
-1
100
AcDbCircle
10
13.5473103505
20
12.8402035693
40
0.5
100
AcDbArc
50
232.180755781
51
315
0
ARC
5
8A
100
AcDbEntity
8
fixation
6
ByLayer
62
256
370
-1
100
AcDbCircle
10
19.1597964307
20
13.5473103505
40
0.5
100
AcDbArc
50
322.180755781
51
45
0
ARC
5
8B
100
AcDbEntity
8
fixation
6
ByLayer
62
256
370
-1
100
AcDbCircle
10
19.1597964307
20
18.4526896495
40
0.5
100
AcDbArc
50
315
51
37.8192442185
0
ARC
5
8C
100
AcDbEntity
8
fixation
6
ByLayer
62
256
370
-1
100
AcDbCircle
10
18.4526896495
20
12.8402035693
40
0.5
100
AcDbArc
50
225
51
307.819244219
0
ARC
5
8D
100
AcDbEntity
8
fixation
6
ByLayer
62
256
370
-1
100
AcDbCircle
10
12.8402035693
20
13.5473103505
40
0.5
100
AcDbArc
50
135
51
217.819244219
0
ARC
5
8E
100
AcDbEntity
8
fixation
6
ByLayer
62
256
370
-1
100
AcDbCircle
10
13.5473103505
20
19.1597964307
40
0.5
100
AcDbArc
50
45
51
127.819244219
0
ARC
5
8F
100
AcDbEntity
8
fixation
6
ByLayer
62
256
370
-1
100
AcDbCircle
10
16
20
16
40
4.5
100
AcDbArc
50
37.8192528046
51
52.1807557815
0
ARC
5
90
100
AcDbEntity
8
fixation
6
ByLayer
62
256
370
-1
100
AcDbCircle
10
16
20
16
40
4.5
100
AcDbArc
50
307.819244983
51
322.180755781
0
ARC
5
91
100
AcDbEntity
8
fixation
6
ByLayer
62
256
370
-1
100
AcDbCircle
10
16
20
16
40
4.5
100
AcDbArc
50
217.819252805
51
232.180755781
0
ARC
5
92
100
AcDbEntity
8
fixation
6
ByLayer
62
256
370
-1
100
AcDbCircle
10
16
20
16
40
4.5
100
AcDbArc
50
127.819244983
51
142.180755781
0
ARC
5
93
100
AcDbEntity
8
fixation
6
ByLayer
62
256
370
-1
100
AcDbCircle
10
19.763024995
20
17.6417046514
40
0.5
100
AcDbArc
50
135
51
203.570323783
0
ARC
5
94
100
AcDbEntity
8
fixation
6
ByLayer
62
256
370
-1
100
AcDbCircle
10
17.6417046514
20
19.763024995
40
0.5
100
AcDbArc
50
246.429676217
51
315
0
ARC
5
95
100
AcDbEntity
8
fixation
6
ByLayer
62
256
370
-1
100
AcDbCircle
10
14.3582953486
20
19.763024995
40
0.5
100
AcDbArc
50
225
51
293.570323783
0
ARC
5
96
100
AcDbEntity
8
fixation
6
ByLayer
62
256
370
-1
100
AcDbCircle
10
12.236975005
20
17.6417046514
40
0.5
100
AcDbArc
50
336.429676217
51
45
0
ARC
5
97
100
AcDbEntity
8
fixation
6
ByLayer
62
256
370
-1
100
AcDbCircle
10
12.236975005
20
14.3582953486
40
0.5
100
AcDbArc
50
315
51
23.570323783
0
ARC
5
98
100
AcDbEntity
8
fixation
6
ByLayer
62
256
370
-1
100
AcDbCircle
10
14.3582953486
20
12.236975005
40
0.5
100
AcDbArc
50
66.429676217
51
135
0
LINE
5
99
100
AcDbEntity
8
fixation
6
ByLayer
62
256
370
-1
100
AcDbLine
10
18.0991362589
20
19.5133498213
11
17.9952578036
21
19.409471366
0
LINE
5
9A
100
AcDbEntity
8
fixation
6
ByLayer
62
256
370
-1
100
AcDbLine
10
19.4094716044
20
17.995258042
11
19.5133497791
21
18.0991362167
0
ARC
5
9B
100
AcDbEntity
8
fixation
6
ByLayer
62
256
370
-1
100
AcDbCircle
10
17.6417046514
20
12.236975005
40
0.5
100
AcDbArc
50
45
51
113.570323783
0
ARC
5
9C
100
AcDbEntity
8
fixation
6
ByLayer
62
256
370
-1
100
AcDbCircle
10
19.763024995
20
14.3582953486
40
0.5
100
AcDbArc
50
156.429676217
51
225
0
ARC
5
9D
100
AcDbEntity
8
fixation
6
ByLayer
62
256
370
-1
100
AcDbCircle
10
16
20
16
40
3.60555127546
100
AcDbArc
50
336.429691957
51
23.5703039591
0
LINE
5
9E
100
AcDbEntity
8
fixation
6
ByLayer
62
256
370
-1
100
AcDbLine
10
19.4094716044
20
14.004741958
11
19.5133498213
21
13.9008637411
0
LINE
5
9F
100
AcDbEntity
8
fixation
6
ByLayer
62
256
370
-1
100
AcDbLine
10
17.995258042
20
12.5905283956
11
18.0991362167
21
12.4866502209
0
ARC
5
A0
100
AcDbEntity
8
fixation
6
ByLayer
62
256
370
-1
100
AcDbCircle
10
16
20
16
40
3.60555127546
100
AcDbArc
50
246.429725449
51
293.570363419
0
LINE
5
A1
100
AcDbEntity
8
fixation
6
ByLayer
62
256
370
-1
100
AcDbLine
10
13.9008637411
20
12.4866501787
11
14.0047421964
21
12.590528634
0
LINE
5
A2
100
AcDbEntity
8
fixation
6
ByLayer
62
256
370
-1
100
AcDbLine
10
12.5905287328
20
14.0047422952
11
12.4866502209
21
13.9008637833
0
ARC
5
A3
100
AcDbEntity
8
fixation
6
ByLayer
62
256
370
-1
100
AcDbCircle
10
16
20
16
40
3.60555127546
100
AcDbArc
50
156.429687909
51
203.570313658
0
ARC
5
A4
100
AcDbEntity
8
fixation
6
ByLayer
62
256
370
-1
100
AcDbCircle
10
16
20
16
40
3.60555127546
100
AcDbArc
50
66.4297175165
51
113.570365082
0
LINE
5
A5
100
AcDbEntity
8
fixation
6
ByLayer
62
256
370
-1
100
AcDbLine
10
14.004741958
20
19.4094716044
11
13.9008637411
21
19.5133498213
0
LINE
5
A6
100
AcDbEntity
8
fixation
6
ByLayer
62
256
370
-1
100
AcDbLine
10
12.5905283956
20
17.995258042
11
12.4866501787
21
18.0991362589
0
CIRCLE
5
A7
100
AcDbEntity
8
fixation
6
ByLayer
62
256
370
-1
100
AcDbCircle
10
16
20
16
40
5.5
0
ARC
5
A8
100
AcDbEntity
8
fixation
6
ByLayer
62
256
370
-1
100
AcDbCircle
10
18.4526896495
20
-12.8402035693
40
0.5
100
AcDbArc
50
52.1807557815
51
135
0
ARC
5
A9
100
AcDbEntity
8
fixation
6
ByLayer
62
256
370
-1
100
AcDbCircle
10
12.8402035693
20
-13.5473103505
40
0.5
100
AcDbArc
50
142.180755781
51
225
0
ARC
5
AA
100
AcDbEntity
8
fixation
6
ByLayer
62
256
370
-1
100
AcDbCircle
10
13.5473103505
20
-19.1597964307
40
0.5
100
AcDbArc
50
232.180755781
51
315
0
ARC
5
AB
100
AcDbEntity
8
fixation
6
ByLayer
62
256
370
-1
100
AcDbCircle
10
19.1597964307
20
-18.4526896495
40
0.5
100
AcDbArc
50
322.180755781
51
45
0
ARC
5
AC
100
AcDbEntity
8
fixation
6
ByLayer
62
256
370
-1
100
AcDbCircle
10
19.1597964307
20
-13.5473103505
40
0.5
100
AcDbArc
50
315
51
37.8192442185
0
ARC
5
AD
100
AcDbEntity
8
fixation
6
ByLayer
62
256
370
-1
100
AcDbCircle
10
18.4526896495
20
-19.1597964307
40
0.5
100
AcDbArc
50
225
51
307.819244219
0
ARC
5
AE
100
AcDbEntity
8
fixation
6
ByLayer
62
256
370
-1
100
AcDbCircle
10
12.8402035693
20
-18.4526896495
40
0.5
100
AcDbArc
50
135
51
217.819244219
0
ARC
5
AF
100
AcDbEntity
8
fixation
6
ByLayer
62
256
370
-1
100
AcDbCircle
10
13.5473103505
20
-12.8402035693
40
0.5
100
AcDbArc
50
45
51
127.819244219
0
ARC
5
B0
100
AcDbEntity
8
fixation
6
ByLayer
62
256
370
-1
100
AcDbCircle
10
16
20
-16
40
4.5
100
AcDbArc
50
37.8192528046
51
52.1807557815
0
ARC
5
B1
100
AcDbEntity
8
fixation
6
ByLayer
62
256
370
-1
100
AcDbCircle
10
16
20
-16
40
4.5
100
AcDbArc
50
307.819244983
51
322.180755781
0
ARC
5
B2
100
AcDbEntity
8
fixation
6
ByLayer
62
256
370
-1
100
AcDbCircle
10
16
20
-16
40
4.5
100
AcDbArc
50
217.819252805
51
232.180755781
0
ARC
5
B3
100
AcDbEntity
8
fixation
6
ByLayer
62
256
370
-1
100
AcDbCircle
10
16
20
-16
40
4.5
100
AcDbArc
50
127.819244983
51
142.180755781
0
ARC
5
B4
100
AcDbEntity
8
fixation
6
ByLayer
62
256
370
-1
100
AcDbCircle
10
19.763024995
20
-14.3582953486
40
0.5
100
AcDbArc
50
135
51
203.570323783
0
ARC
5
B5
100
AcDbEntity
8
fixation
6
ByLayer
62
256
370
-1
100
AcDbCircle
10
17.6417046514
20
-12.236975005
40
0.5
100
AcDbArc
50
246.429676217
51
315
0
ARC
5
B6
100
AcDbEntity
8
fixation
6
ByLayer
62
256
370
-1
100
AcDbCircle
10
14.3582953486
20
-12.236975005
40
0.5
100
AcDbArc
50
225
51
293.570323783
0
ARC
5
B7
100
AcDbEntity
8
fixation
6
ByLayer
62
256
370
-1
100
AcDbCircle
10
12.236975005
20
-14.3582953486
40
0.5
100
AcDbArc
50
336.429676217
51
45
0
ARC
5
B8
100
AcDbEntity
8
fixation
6
ByLayer
62
256
370
-1
100
AcDbCircle
10
12.236975005
20
-17.6417046514
40
0.5
100
AcDbArc
50
315
51
23.570323783
0
ARC
5
B9
100
AcDbEntity
8
fixation
6
ByLayer
62
256
370
-1
100
AcDbCircle
10
14.3582953486
20
-19.763024995
40
0.5
100
AcDbArc
50
66.429676217
51
135
0
LINE
5
BA
100
AcDbEntity
8
fixation
6
ByLayer
62
256
370
-1
100
AcDbLine
10
18.0991362589
20
-12.4866501787
11
17.9952578036
21
-12.590528634
0
LINE
5
BB
100
AcDbEntity
8
fixation
6
ByLayer
62
256
370
-1
100
AcDbLine
10
19.4094716044
20
-14.004741958
11
19.5133497791
21
-13.9008637833
0
ARC
5
BC
100
AcDbEntity
8
fixation
6
ByLayer
62
256
370
-1
100
AcDbCircle
10
17.6417046514
20
-19.763024995
40
0.5
100
AcDbArc
50
45
51
113.570323783
0
ARC
5
BD
100
AcDbEntity
8
fixation
6
ByLayer
62
256
370
-1
100
AcDbCircle
10
19.763024995
20
-17.6417046514
40
0.5
100
AcDbArc
50
156.429676217
51
225
0
ARC
5
BE
100
AcDbEntity
8
fixation
6
ByLayer
62
256
370
-1
100
AcDbCircle
10
16
20
-16
40
3.60555127546
100
AcDbArc
50
336.429691957
51
23.5703039591
0
LINE
5
BF
100
AcDbEntity
8
fixation
6
ByLayer
62
256
370
-1
100
AcDbLine
10
19.4094716044
20
-17.995258042
11
19.5133498213
21
-18.0991362589
0
LINE
5
C0
100
AcDbEntity
8
fixation
6
ByLayer
62
256
370
-1
100
AcDbLine
10
17.995258042
20
-19.4094716044
11
18.0991362167
21
-19.5133497791
0
ARC
5
C1
100
AcDbEntity
8
fixation
6
ByLayer
62
256
370
-1
100
AcDbCircle
10
16
20
-16
40
3.60555127546
100
AcDbArc
50
246.429725449
51
293.570363419
0
LINE
5
C2
100
AcDbEntity
8
fixation
6
ByLayer
62
256
370
-1
100
AcDbLine
10
13.9008637411
20
-19.5133498213
11
14.0047421964
21
-19.409471366
0
LINE
5
C3
100
AcDbEntity
8
fixation
6
ByLayer
62
256
370
-1
100
AcDbLine
10
12.5905287328
20
-17.9952577048
11
12.4866502209
21
-18.0991362167
0
ARC
5
C4
100
AcDbEntity
8
fixation
6
ByLayer
62
256
370
-1
100
AcDbCircle
10
16
20
-16
40
3.60555127546
100
AcDbArc
50
156.429687909
51
203.570313658
0
ARC
5
C5
100
AcDbEntity
8
fixation
6
ByLayer
62
256
370
-1
100
AcDbCircle
10
16
20
-16
40
3.60555127546
100
AcDbArc
50
66.4297175165
51
113.570365082
0
LINE
5
C6
100
AcDbEntity
8
fixation
6
ByLayer
62
256
370
-1
100
AcDbLine
10
14.004741958
20
-12.5905283956
11
13.9008637411
21
-12.4866501787
0
LINE
5
C7
100
AcDbEntity
8
fixation
6
ByLayer
62
256
370
-1
100
AcDbLine
10
12.5905283956
20
-14.004741958
11
12.4866501787
21
-13.9008637411
0
CIRCLE
5
C8
100
AcDbEntity
8
fixation
6
ByLayer
62
256
370
-1
100
AcDbCircle
10
16
20
-16
40
5.5
0
ARC
5
C9
100
AcDbEntity
8
fixation
6
ByLayer
62
256
370
-1
100
AcDbCircle
10
-13.5473103505
20
-12.8402035693
40
0.5
100
AcDbArc
50
52.1807557815
51
135
0
ARC
5
CA
100
AcDbEntity
8
fixation
6
ByLayer
62
256
370
-1
100
AcDbCircle
10
-19.1597964307
20
-13.5473103505
40
0.5
100
AcDbArc
50
142.180755781
51
225
0
ARC
5
CB
100
AcDbEntity
8
fixation
6
ByLayer
62
256
370
-1
100
AcDbCircle
10
-18.4526896495
20
-19.1597964307
40
0.5
100
AcDbArc
50
232.180755781
51
315
0
ARC
5
CC
100
AcDbEntity
8
fixation
6
ByLayer
62
256
370
-1
100
AcDbCircle
10
-12.8402035693
20
-18.4526896495
40
0.5
100
AcDbArc
50
322.180755781
51
45
0
ARC
5
CD
100
AcDbEntity
8
fixation
6
ByLayer
62
256
370
-1
100
AcDbCircle
10
-12.8402035693
20
-13.5473103505
40
0.5
100
AcDbArc
50
315
51
37.8192442185
0
ARC
5
CE
100
AcDbEntity
8
fixation
6
ByLayer
62
256
370
-1
100
AcDbCircle
10
-13.5473103505
20
-19.1597964307
40
0.5
100
AcDbArc
50
225
51
307.819244219
0
ARC
5
CF
100
AcDbEntity
8
fixation
6
ByLayer
62
256
370
-1
100
AcDbCircle
10
-19.1597964307
20
-18.4526896495
40
0.5
100
AcDbArc
50
135
51
217.819244219
0
ARC
5
D0
100
AcDbEntity
8
fixation
6
ByLayer
62
256
370
-1
100
AcDbCircle
10
-18.4526896495
20
-12.8402035693
40
0.5
100
AcDbArc
50
45
51
127.819244219
0
ARC
5
D1
100
AcDbEntity
8
fixation
6
ByLayer
62
256
370
-1
100
AcDbCircle
10
-16
20
-16
40
4.5
100
AcDbArc
50
37.8192528046
51
52.1807557815
0
ARC
5
D2
100
AcDbEntity
8
fixation
6
ByLayer
62
256
370
-1
100
AcDbCircle
10
-16
20
-16
40
4.5
100
AcDbArc
50
307.819244983
51
322.180755781
0
ARC
5
D3
100
AcDbEntity
8
fixation
6
ByLayer
62
256
370
-1
100
AcDbCircle
10
-16
20
-16
40
4.5
100
AcDbArc
50
217.819252805
51
232.180755781
0
ARC
5
D4
100
AcDbEntity
8
fixation
6
ByLayer
62
256
370
-1
100
AcDbCircle
10
-16
20
-16
40
4.5
100
AcDbArc
50
127.819244983
51
142.180755781
0
ARC
5
D5
100
AcDbEntity
8
fixation
6
ByLayer
62
256
370
-1
100
AcDbCircle
10
-12.236975005
20
-14.3582953486
40
0.5
100
AcDbArc
50
135
51
203.570323783
0
ARC
5
D6
100
AcDbEntity
8
fixation
6
ByLayer
62
256
370
-1
100
AcDbCircle
10
-14.3582953486
20
-12.236975005
40
0.5
100
AcDbArc
50
246.429676217
51
315
0
ARC
5
D7
100
AcDbEntity
8
fixation
6
ByLayer
62
256
370
-1
100
AcDbCircle
10
-17.6417046514
20
-12.236975005
40
0.5
100
AcDbArc
50
225
51
293.570323783
0
ARC
5
D8
100
AcDbEntity
8
fixation
6
ByLayer
62
256
370
-1
100
AcDbCircle
10
-19.763024995
20
-14.3582953486
40
0.5
100
AcDbArc
50
336.429676217
51
45
0
ARC
5
D9
100
AcDbEntity
8
fixation
6
ByLayer
62
256
370
-1
100
AcDbCircle
10
-19.763024995
20
-17.6417046514
40
0.5
100
AcDbArc
50
315
51
23.570323783
0
ARC
5
DA
100
AcDbEntity
8
fixation
6
ByLayer
62
256
370
-1
100
AcDbCircle
10
-17.6417046514
20
-19.763024995
40
0.5
100
AcDbArc
50
66.429676217
51
135
0
LINE
5
DB
100
AcDbEntity
8
fixation
6
ByLayer
62
256
370
-1
100
AcDbLine
10
-13.9008637411
20
-12.4866501787
11
-14.0047421964
21
-12.590528634
0
LINE
5
DC
100
AcDbEntity
8
fixation
6
ByLayer
62
256
370
-1
100
AcDbLine
10
-12.5905283956
20
-14.004741958
11
-12.4866502209
21
-13.9008637833
0
ARC
5
DD
100
AcDbEntity
8
fixation
6
ByLayer
62
256
370
-1
100
AcDbCircle
10
-14.3582953486
20
-19.763024995
40
0.5
100
AcDbArc
50
45
51
113.570323783
0
ARC
5
DE
100
AcDbEntity
8
fixation
6
ByLayer
62
256
370
-1
100
AcDbCircle
10
-12.236975005
20
-17.6417046514
40
0.5
100
AcDbArc
50
156.429676217
51
225
0
ARC
5
DF
100
AcDbEntity
8
fixation
6
ByLayer
62
256
370
-1
100
AcDbCircle
10
-16
20
-16
40
3.60555127546
100
AcDbArc
50
336.429691957
51
23.5703039591
0
LINE
5
E0
100
AcDbEntity
8
fixation
6
ByLayer
62
256
370
-1
100
AcDbLine
10
-12.5905283956
20
-17.995258042
11
-12.4866501787
21
-18.0991362589
0
LINE
5
E1
100
AcDbEntity
8
fixation
6
ByLayer
62
256
370
-1
100
AcDbLine
10
-14.004741958
20
-19.4094716044
11
-13.9008637833
21
-19.5133497791
0
ARC
5
E2
100
AcDbEntity
8
fixation
6
ByLayer
62
256
370
-1
100
AcDbCircle
10
-16
20
-16
40
3.60555127546
100
AcDbArc
50
246.429725449
51
293.570363419
0
LINE
5
E3
100
AcDbEntity
8
fixation
6
ByLayer
62
256
370
-1
100
AcDbLine
10
-18.0991362589
20
-19.5133498213
11
-17.9952578036
21
-19.409471366
0
LINE
5
E4
100
AcDbEntity
8
fixation
6
ByLayer
62
256
370
-1
100
AcDbLine
10
-19.4094712672
20
-17.9952577048
11
-19.5133497791
21
-18.0991362167
0
ARC
5
E5
100
AcDbEntity
8
fixation
6
ByLayer
62
256
370
-1
100
AcDbCircle
10
-16
20
-16
40
3.60555127546
100
AcDbArc
50
156.429687909
51
203.570313658
0
ARC
5
E6
100
AcDbEntity
8
fixation
6
ByLayer
62
256
370
-1
100
AcDbCircle
10
-16
20
-16
40
3.60555127546
100
AcDbArc
50
66.4297175165
51
113.570365082
0
LINE
5
E7
100
AcDbEntity
8
fixation
6
ByLayer
62
256
370
-1
100
AcDbLine
10
-17.995258042
20
-12.5905283956
11
-18.0991362589
21
-12.4866501787
0
LINE
5
E8
100
AcDbEntity
8
fixation
6
ByLayer
62
256
370
-1
100
AcDbLine
10
-19.4094716044
20
-14.004741958
11
-19.5133498213
21
-13.9008637411
0
CIRCLE
5
E9
100
AcDbEntity
8
fixation
6
ByLayer
62
256
370
-1
100
AcDbCircle
10
-16
20
-16
40
5.5
0
ARC
5
EA
100
AcDbEntity
8
millennium_falcon
6
ByLayer
62
256
370
-1
100
AcDbCircle
10
-13.5473103505
20
19.1597964307
40
0.5
100
AcDbArc
50
52.1807557815
51
135
0
ARC
5
EB
100
AcDbEntity
8
millennium_falcon
6
ByLayer
62
256
370
-1
100
AcDbCircle
10
-19.1597964307
20
18.4526896495
40
0.5
100
AcDbArc
50
142.180755781
51
225
0
ARC
5
EC
100
AcDbEntity
8
millennium_falcon
6
ByLayer
62
256
370
-1
100
AcDbCircle
10
-18.4526896495
20
12.8402035693
40
0.5
100
AcDbArc
50
232.180755781
51
315
0
ARC
5
ED
100
AcDbEntity
8
millennium_falcon
6
ByLayer
62
256
370
-1
100
AcDbCircle
10
-12.8402035693
20
13.5473103505
40
0.5
100
AcDbArc
50
322.180755781
51
45
0
ARC
5
EE
100
AcDbEntity
8
millennium_falcon
6
ByLayer
62
256
370
-1
100
AcDbCircle
10
-12.8402035693
20
18.4526896495
40
0.5
100
AcDbArc
50
315
51
37.8192442185
0
ARC
5
EF
100
AcDbEntity
8
millennium_falcon
6
ByLayer
62
256
370
-1
100
AcDbCircle
10
-13.5473103505
20
12.8402035693
40
0.5
100
AcDbArc
50
225
51
307.819244219
0
ARC
5
F0
100
AcDbEntity
8
millennium_falcon
6
ByLayer
62
256
370
-1
100
AcDbCircle
10
-19.1597964307
20
13.5473103505
40
0.5
100
AcDbArc
50
135
51
217.819244219
0
ARC
5
F1
100
AcDbEntity
8
millennium_falcon
6
ByLayer
62
256
370
-1
100
AcDbCircle
10
-18.4526896495
20
19.1597964307
40
0.5
100
AcDbArc
50
45
51
127.819244219
0
ARC
5
F2
100
AcDbEntity
8
millennium_falcon
6
ByLayer
62
256
370
-1
100
AcDbCircle
10
-16
20
16
40
4.5
100
AcDbArc
50
37.8192528046
51
52.1807557815
0
ARC
5
F3
100
AcDbEntity
8
millennium_falcon
6
ByLayer
62
256
370
-1
100
AcDbCircle
10
-16
20
16
40
4.5
100
AcDbArc
50
307.819244983
51
322.180755781
0
ARC
5
F4
100
AcDbEntity
8
millennium_falcon
6
ByLayer
62
256
370
-1
100
AcDbCircle
10
-16
20
16
40
4.5
100
AcDbArc
50
217.819252805
51
232.180755781
0
ARC
5
F5
100
AcDbEntity
8
millennium_falcon
6
ByLayer
62
256
370
-1
100
AcDbCircle
10
-16
20
16
40
4.5
100
AcDbArc
50
127.819244983
51
142.180755781
0
ARC
5
F6
100
AcDbEntity
8
millennium_falcon
6
ByLayer
62
256
370
-1
100
AcDbCircle
10
-12.236975005
20
17.6417046514
40
0.5
100
AcDbArc
50
135
51
203.570323783
0
ARC
5
F7
100
AcDbEntity
8
millennium_falcon
6
ByLayer
62
256
370
-1
100
AcDbCircle
10
-14.3582953486
20
19.763024995
40
0.5
100
AcDbArc
50
246.429676217
51
315
0
ARC
5
F8
100
AcDbEntity
8
millennium_falcon
6
ByLayer
62
256
370
-1
100
AcDbCircle
10
-17.6417046514
20
19.763024995
40
0.5
100
AcDbArc
50
225
51
293.570323783
0
ARC
5
F9
100
AcDbEntity
8
millennium_falcon
6
ByLayer
62
256
370
-1
100
AcDbCircle
10
-19.763024995
20
17.6417046514
40
0.5
100
AcDbArc
50
336.429676217
51
45
0
ARC
5
FA
100
AcDbEntity
8
millennium_falcon
6
ByLayer
62
256
370
-1
100
AcDbCircle
10
-19.763024995
20
14.3582953486
40
0.5
100
AcDbArc
50
315
51
23.570323783
0
ARC
5
FB
100
AcDbEntity
8
millennium_falcon
6
ByLayer
62
256
370
-1
100
AcDbCircle
10
-17.6417046514
20
12.236975005
40
0.5
100
AcDbArc
50
66.429676217
51
135
0
LINE
5
FC
100
AcDbEntity
8
millennium_falcon
6
ByLayer
62
256
370
-1
100
AcDbLine
10
-13.9008637411
20
19.5133498213
11
-14.0047421964
21
19.409471366
0
LINE
5
FD
100
AcDbEntity
8
millennium_falcon
6
ByLayer
62
256
370
-1
100
AcDbLine
10
-12.5905283956
20
17.995258042
11
-12.4866502209
21
18.0991362167
0
ARC
5
FE
100
AcDbEntity
8
millennium_falcon
6
ByLayer
62
256
370
-1
100
AcDbCircle
10
-14.3582953486
20
12.236975005
40
0.5
100
AcDbArc
50
45
51
113.570323783
0
ARC
5
FF
100
AcDbEntity
8
millennium_falcon
6
ByLayer
62
256
370
-1
100
AcDbCircle
10
-12.236975005
20
14.3582953486
40
0.5
100
AcDbArc
50
156.429676217
51
225
0
ARC
5
100
100
AcDbEntity
8
millennium_falcon
6
ByLayer
62
256
370
-1
100
AcDbCircle
10
-16
20
16
40
3.60555127546
100
AcDbArc
50
336.429691957
51
23.5703039591
0
LINE
5
101
100
AcDbEntity
8
millennium_falcon
6
ByLayer
62
256
370
-1
100
AcDbLine
10
-12.5905283956
20
14.004741958
11
-12.4866501787
21
13.9008637411
0
LINE
5
102
100
AcDbEntity
8
millennium_falcon
6
ByLayer
62
256
370
-1
100
AcDbLine
10
-14.004741958
20
12.5905283956
11
-13.9008637833
21
12.4866502209
0
ARC
5
103
100
AcDbEntity
8
millennium_falcon
6
ByLayer
62
256
370
-1
100
AcDbCircle
10
-16
20
16
40
3.60555127546
100
AcDbArc
50
246.429725449
51
293.570363419
0
LINE
5
104
100
AcDbEntity
8
millennium_falcon
6
ByLayer
62
256
370
-1
100
AcDbLine
10
-18.0991362589
20
12.4866501787
11
-17.9952578036
21
12.590528634
0
LINE
5
105
100
AcDbEntity
8
millennium_falcon
6
ByLayer
62
256
370
-1
100
AcDbLine
10
-19.4094712672
20
14.0047422952
11
-19.5133497791
21
13.9008637833
0
ARC
5
106
100
AcDbEntity
8
millennium_falcon
6
ByLayer
62
256
370
-1
100
AcDbCircle
10
-16
20
16
40
3.60555127546
100
AcDbArc
50
156.429687909
51
203.570313658
0
ARC
5
107
100
AcDbEntity
8
millennium_falcon
6
ByLayer
62
256
370
-1
100
AcDbCircle
10
-16
20
16
40
3.60555127546
100
AcDbArc
50
66.4297175165
51
113.570365082
0
LINE
5
108
100
AcDbEntity
8
millennium_falcon
6
ByLayer
62
256
370
-1
100
AcDbLine
10
-17.995258042
20
19.4094716044
11
-18.0991362589
21
19.5133498213
0
LINE
5
109
100
AcDbEntity
8
millennium_falcon
6
ByLayer
62
256
370
-1
100
AcDbLine
10
-19.4094716044
20
17.995258042
11
-19.5133498213
21
18.0991362589
0
ARC
5
10A
100
AcDbEntity
8
millennium_falcon
6
ByLayer
62
256
370
-1
100
AcDbCircle
10
18.4526896495
20
19.1597964307
40
0.5
100
AcDbArc
50
52.1807557815
51
135
0
ARC
5
10B
100
AcDbEntity
8
millennium_falcon
6
ByLayer
62
256
370
-1
100
AcDbCircle
10
12.8402035693
20
18.4526896495
40
0.5
100
AcDbArc
50
142.180755781
51
225
0
ARC
5
10C
100
AcDbEntity
8
millennium_falcon
6
ByLayer
62
256
370
-1
100
AcDbCircle
10
13.5473103505
20
12.8402035693
40
0.5
100
AcDbArc
50
232.180755781
51
315
0
ARC
5
10D
100
AcDbEntity
8
millennium_falcon
6
ByLayer
62
256
370
-1
100
AcDbCircle
10
19.1597964307
20
13.5473103505
40
0.5
100
AcDbArc
50
322.180755781
51
45
0
ARC
5
10E
100
AcDbEntity
8
millennium_falcon
6
ByLayer
62
256
370
-1
100
AcDbCircle
10
19.1597964307
20
18.4526896495
40
0.5
100
AcDbArc
50
315
51
37.8192442185
0
ARC
5
10F
100
AcDbEntity
8
millennium_falcon
6
ByLayer
62
256
370
-1
100
AcDbCircle
10
18.4526896495
20
12.8402035693
40
0.5
100
AcDbArc
50
225
51
307.819244219
0
ARC
5
110
100
AcDbEntity
8
millennium_falcon
6
ByLayer
62
256
370
-1
100
AcDbCircle
10
12.8402035693
20
13.5473103505
40
0.5
100
AcDbArc
50
135
51
217.819244219
0
ARC
5
111
100
AcDbEntity
8
millennium_falcon
6
ByLayer
62
256
370
-1
100
AcDbCircle
10
13.5473103505
20
19.1597964307
40
0.5
100
AcDbArc
50
45
51
127.819244219
0
ARC
5
112
100
AcDbEntity
8
millennium_falcon
6
ByLayer
62
256
370
-1
100
AcDbCircle
10
16
20
16
40
4.5
100
AcDbArc
50
37.8192528046
51
52.1807557815
0
ARC
5
113
100
AcDbEntity
8
millennium_falcon
6
ByLayer
62
256
370
-1
100
AcDbCircle
10
16
20
16
40
4.5
100
AcDbArc
50
307.819244983
51
322.180755781
0
ARC
5
114
100
AcDbEntity
8
millennium_falcon
6
ByLayer
62
256
370
-1
100
AcDbCircle
10
16
20
16
40
4.5
100
AcDbArc
50
217.819252805
51
232.180755781
0
ARC
5
115
100
AcDbEntity
8
millennium_falcon
6
ByLayer
62
256
370
-1
100
AcDbCircle
10
16
20
16
40
4.5
100
AcDbArc
50
127.819244983
51
142.180755781
0
ARC
5
116
100
AcDbEntity
8
millennium_falcon
6
ByLayer
62
256
370
-1
100
AcDbCircle
10
19.763024995
20
17.6417046514
40
0.5
100
AcDbArc
50
135
51
203.570323783
0
ARC
5
117
100
AcDbEntity
8
millennium_falcon
6
ByLayer
62
256
370
-1
100
AcDbCircle
10
17.6417046514
20
19.763024995
40
0.5
100
AcDbArc
50
246.429676217
51
315
0
ARC
5
118
100
AcDbEntity
8
millennium_falcon
6
ByLayer
62
256
370
-1
100
AcDbCircle
10
14.3582953486
20
19.763024995
40
0.5
100
AcDbArc
50
225
51
293.570323783
0
ARC
5
119
100
AcDbEntity
8
millennium_falcon
6
ByLayer
62
256
370
-1
100
AcDbCircle
10
12.236975005
20
17.6417046514
40
0.5
100
AcDbArc
50
336.429676217
51
45
0
ARC
5
11A
100
AcDbEntity
8
millennium_falcon
6
ByLayer
62
256
370
-1
100
AcDbCircle
10
12.236975005
20
14.3582953486
40
0.5
100
AcDbArc
50
315
51
23.570323783
0
ARC
5
11B
100
AcDbEntity
8
millennium_falcon
6
ByLayer
62
256
370
-1
100
AcDbCircle
10
14.3582953486
20
12.236975005
40
0.5
100
AcDbArc
50
66.429676217
51
135
0
LINE
5
11C
100
AcDbEntity
8
millennium_falcon
6
ByLayer
62
256
370
-1
100
AcDbLine
10
18.0991362589
20
19.5133498213
11
17.9952578036
21
19.409471366
0
LINE
5
11D
100
AcDbEntity
8
millennium_falcon
6
ByLayer
62
256
370
-1
100
AcDbLine
10
19.4094716044
20
17.995258042
11
19.5133497791
21
18.0991362167
0
ARC
5
11E
100
AcDbEntity
8
millennium_falcon
6
ByLayer
62
256
370
-1
100
AcDbCircle
10
17.6417046514
20
12.236975005
40
0.5
100
AcDbArc
50
45
51
113.570323783
0
ARC
5
11F
100
AcDbEntity
8
millennium_falcon
6
ByLayer
62
256
370
-1
100
AcDbCircle
10
19.763024995
20
14.3582953486
40
0.5
100
AcDbArc
50
156.429676217
51
225
0
ARC
5
120
100
AcDbEntity
8
millennium_falcon
6
ByLayer
62
256
370
-1
100
AcDbCircle
10
16
20
16
40
3.60555127546
100
AcDbArc
50
336.429691957
51
23.5703039591
0
LINE
5
121
100
AcDbEntity
8
millennium_falcon
6
ByLayer
62
256
370
-1
100
AcDbLine
10
19.4094716044
20
14.004741958
11
19.5133498213
21
13.9008637411
0
LINE
5
122
100
AcDbEntity
8
millennium_falcon
6
ByLayer
62
256
370
-1
100
AcDbLine
10
17.995258042
20
12.5905283956
11
18.0991362167
21
12.4866502209
0
ARC
5
123
100
AcDbEntity
8
millennium_falcon
6
ByLayer
62
256
370
-1
100
AcDbCircle
10
16
20
16
40
3.60555127546
100
AcDbArc
50
246.429725449
51
293.570363419
0
LINE
5
124
100
AcDbEntity
8
millennium_falcon
6
ByLayer
62
256
370
-1
100
AcDbLine
10
13.9008637411
20
12.4866501787
11
14.0047421964
21
12.590528634
0
LINE
5
125
100
AcDbEntity
8
millennium_falcon
6
ByLayer
62
256
370
-1
100
AcDbLine
10
12.5905287328
20
14.0047422952
11
12.4866502209
21
13.9008637833
0
ARC
5
126
100
AcDbEntity
8
millennium_falcon
6
ByLayer
62
256
370
-1
100
AcDbCircle
10
16
20
16
40
3.60555127546
100
AcDbArc
50
156.429687909
51
203.570313658
0
ARC
5
127
100
AcDbEntity
8
millennium_falcon
6
ByLayer
62
256
370
-1
100
AcDbCircle
10
16
20
16
40
3.60555127546
100
AcDbArc
50
66.4297175165
51
113.570365082
0
LINE
5
128
100
AcDbEntity
8
millennium_falcon
6
ByLayer
62
256
370
-1
100
AcDbLine
10
14.004741958
20
19.4094716044
11
13.9008637411
21
19.5133498213
0
LINE
5
129
100
AcDbEntity
8
millennium_falcon
6
ByLayer
62
256
370
-1
100
AcDbLine
10
12.5905283956
20
17.995258042
11
12.4866501787
21
18.0991362589
0
ARC
5
12A
100
AcDbEntity
8
millennium_falcon
6
ByLayer
62
256
370
-1
100
AcDbCircle
10
18.4526896495
20
-12.8402035693
40
0.5
100
AcDbArc
50
52.1807557815
51
135
0
ARC
5
12B
100
AcDbEntity
8
millennium_falcon
6
ByLayer
62
256
370
-1
100
AcDbCircle
10
12.8402035693
20
-13.5473103505
40
0.5
100
AcDbArc
50
142.180755781
51
225
0
ARC
5
12C
100
AcDbEntity
8
millennium_falcon
6
ByLayer
62
256
370
-1
100
AcDbCircle
10
13.5473103505
20
-19.1597964307
40
0.5
100
AcDbArc
50
232.180755781
51
315
0
ARC
5
12D
100
AcDbEntity
8
millennium_falcon
6
ByLayer
62
256
370
-1
100
AcDbCircle
10
19.1597964307
20
-18.4526896495
40
0.5
100
AcDbArc
50
322.180755781
51
45
0
ARC
5
12E
100
AcDbEntity
8
millennium_falcon
6
ByLayer
62
256
370
-1
100
AcDbCircle
10
19.1597964307
20
-13.5473103505
40
0.5
100
AcDbArc
50
315
51
37.8192442185
0
ARC
5
12F
100
AcDbEntity
8
millennium_falcon
6
ByLayer
62
256
370
-1
100
AcDbCircle
10
18.4526896495
20
-19.1597964307
40
0.5
100
AcDbArc
50
225
51
307.819244219
0
ARC
5
130
100
AcDbEntity
8
millennium_falcon
6
ByLayer
62
256
370
-1
100
AcDbCircle
10
12.8402035693
20
-18.4526896495
40
0.5
100
AcDbArc
50
135
51
217.819244219
0
ARC
5
131
100
AcDbEntity
8
millennium_falcon
6
ByLayer
62
256
370
-1
100
AcDbCircle
10
13.5473103505
20
-12.8402035693
40
0.5
100
AcDbArc
50
45
51
127.819244219
0
ARC
5
132
100
AcDbEntity
8
millennium_falcon
6
ByLayer
62
256
370
-1
100
AcDbCircle
10
16
20
-16
40
4.5
100
AcDbArc
50
37.8192528046
51
52.1807557815
0
ARC
5
133
100
AcDbEntity
8
millennium_falcon
6
ByLayer
62
256
370
-1
100
AcDbCircle
10
16
20
-16
40
4.5
100
AcDbArc
50
307.819244983
51
322.180755781
0
ARC
5
134
100
AcDbEntity
8
millennium_falcon
6
ByLayer
62
256
370
-1
100
AcDbCircle
10
16
20
-16
40
4.5
100
AcDbArc
50
217.819252805
51
232.180755781
0
ARC
5
135
100
AcDbEntity
8
millennium_falcon
6
ByLayer
62
256
370
-1
100
AcDbCircle
10
16
20
-16
40
4.5
100
AcDbArc
50
127.819244983
51
142.180755781
0
ARC
5
136
100
AcDbEntity
8
millennium_falcon
6
ByLayer
62
256
370
-1
100
AcDbCircle
10
19.763024995
20
-14.3582953486
40
0.5
100
AcDbArc
50
135
51
203.570323783
0
ARC
5
137
100
AcDbEntity
8
millennium_falcon
6
ByLayer
62
256
370
-1
100
AcDbCircle
10
17.6417046514
20
-12.236975005
40
0.5
100
AcDbArc
50
246.429676217
51
315
0
ARC
5
138
100
AcDbEntity
8
millennium_falcon
6
ByLayer
62
256
370
-1
100
AcDbCircle
10
14.3582953486
20
-12.236975005
40
0.5
100
AcDbArc
50
225
51
293.570323783
0
ARC
5
139
100
AcDbEntity
8
millennium_falcon
6
ByLayer
62
256
370
-1
100
AcDbCircle
10
12.236975005
20
-14.3582953486
40
0.5
100
AcDbArc
50
336.429676217
51
45
0
ARC
5
13A
100
AcDbEntity
8
millennium_falcon
6
ByLayer
62
256
370
-1
100
AcDbCircle
10
12.236975005
20
-17.6417046514
40
0.5
100
AcDbArc
50
315
51
23.570323783
0
ARC
5
13B
100
AcDbEntity
8
millennium_falcon
6
ByLayer
62
256
370
-1
100
AcDbCircle
10
14.3582953486
20
-19.763024995
40
0.5
100
AcDbArc
50
66.429676217
51
135
0
LINE
5
13C
100
AcDbEntity
8
millennium_falcon
6
ByLayer
62
256
370
-1
100
AcDbLine
10
18.0991362589
20
-12.4866501787
11
17.9952578036
21
-12.590528634
0
LINE
5
13D
100
AcDbEntity
8
millennium_falcon
6
ByLayer
62
256
370
-1
100
AcDbLine
10
19.4094716044
20
-14.004741958
11
19.5133497791
21
-13.9008637833
0
ARC
5
13E
100
AcDbEntity
8
millennium_falcon
6
ByLayer
62
256
370
-1
100
AcDbCircle
10
17.6417046514
20
-19.763024995
40
0.5
100
AcDbArc
50
45
51
113.570323783
0
ARC
5
13F
100
AcDbEntity
8
millennium_falcon
6
ByLayer
62
256
370
-1
100
AcDbCircle
10
19.763024995
20
-17.6417046514
40
0.5
100
AcDbArc
50
156.429676217
51
225
0
ARC
5
140
100
AcDbEntity
8
millennium_falcon
6
ByLayer
62
256
370
-1
100
AcDbCircle
10
16
20
-16
40
3.60555127546
100
AcDbArc
50
336.429691957
51
23.5703039591
0
LINE
5
141
100
AcDbEntity
8
millennium_falcon
6
ByLayer
62
256
370
-1
100
AcDbLine
10
19.4094716044
20
-17.995258042
11
19.5133498213
21
-18.0991362589
0
LINE
5
142
100
AcDbEntity
8
millennium_falcon
6
ByLayer
62
256
370
-1
100
AcDbLine
10
17.995258042
20
-19.4094716044
11
18.0991362167
21
-19.5133497791
0
ARC
5
143
100
AcDbEntity
8
millennium_falcon
6
ByLayer
62
256
370
-1
100
AcDbCircle
10
16
20
-16
40
3.60555127546
100
AcDbArc
50
246.429725449
51
293.570363419
0
LINE
5
144
100
AcDbEntity
8
millennium_falcon
6
ByLayer
62
256
370
-1
100
AcDbLine
10
13.9008637411
20
-19.5133498213
11
14.0047421964
21
-19.409471366
0
LINE
5
145
100
AcDbEntity
8
millennium_falcon
6
ByLayer
62
256
370
-1
100
AcDbLine
10
12.5905287328
20
-17.9952577048
11
12.4866502209
21
-18.0991362167
0
ARC
5
146
100
AcDbEntity
8
millennium_falcon
6
ByLayer
62
256
370
-1
100
AcDbCircle
10
16
20
-16
40
3.60555127546
100
AcDbArc
50
156.429687909
51
203.570313658
0
ARC
5
147
100
AcDbEntity
8
millennium_falcon
6
ByLayer
62
256
370
-1
100
AcDbCircle
10
16
20
-16
40
3.60555127546
100
AcDbArc
50
66.4297175165
51
113.570365082
0
LINE
5
148
100
AcDbEntity
8
millennium_falcon
6
ByLayer
62
256
370
-1
100
AcDbLine
10
14.004741958
20
-12.5905283956
11
13.9008637411
21
-12.4866501787
0
LINE
5
149
100
AcDbEntity
8
millennium_falcon
6
ByLayer
62
256
370
-1
100
AcDbLine
10
12.5905283956
20
-14.004741958
11
12.4866501787
21
-13.9008637411
0
ARC
5
14A
100
AcDbEntity
8
millennium_falcon
6
ByLayer
62
256
370
-1
100
AcDbCircle
10
-13.5473103505
20
-12.8402035693
40
0.5
100
AcDbArc
50
52.1807557815
51
135
0
ARC
5
14B
100
AcDbEntity
8
millennium_falcon
6
ByLayer
62
256
370
-1
100
AcDbCircle
10
-19.1597964307
20
-13.5473103505
40
0.5
100
AcDbArc
50
142.180755781
51
225
0
ARC
5
14C
100
AcDbEntity
8
millennium_falcon
6
ByLayer
62
256
370
-1
100
AcDbCircle
10
-18.4526896495
20
-19.1597964307
40
0.5
100
AcDbArc
50
232.180755781
51
315
0
ARC
5
14D
100
AcDbEntity
8
millennium_falcon
6
ByLayer
62
256
370
-1
100
AcDbCircle
10
-12.8402035693
20
-18.4526896495
40
0.5
100
AcDbArc
50
322.180755781
51
45
0
ARC
5
14E
100
AcDbEntity
8
millennium_falcon
6
ByLayer
62
256
370
-1
100
AcDbCircle
10
-12.8402035693
20
-13.5473103505
40
0.5
100
AcDbArc
50
315
51
37.8192442185
0
ARC
5
14F
100
AcDbEntity
8
millennium_falcon
6
ByLayer
62
256
370
-1
100
AcDbCircle
10
-13.5473103505
20
-19.1597964307
40
0.5
100
AcDbArc
50
225
51
307.819244219
0
ARC
5
150
100
AcDbEntity
8
millennium_falcon
6
ByLayer
62
256
370
-1
100
AcDbCircle
10
-19.1597964307
20
-18.4526896495
40
0.5
100
AcDbArc
50
135
51
217.819244219
0
ARC
5
151
100
AcDbEntity
8
millennium_falcon
6
ByLayer
62
256
370
-1
100
AcDbCircle
10
-18.4526896495
20
-12.8402035693
40
0.5
100
AcDbArc
50
45
51
127.819244219
0
ARC
5
152
100
AcDbEntity
8
millennium_falcon
6
ByLayer
62
256
370
-1
100
AcDbCircle
10
-16
20
-16
40
4.5
100
AcDbArc
50
37.8192528046
51
52.1807557815
0
ARC
5
153
100
AcDbEntity
8
millennium_falcon
6
ByLayer
62
256
370
-1
100
AcDbCircle
10
-16
20
-16
40
4.5
100
AcDbArc
50
307.819244983
51
322.180755781
0
ARC
5
154
100
AcDbEntity
8
millennium_falcon
6
ByLayer
62
256
370
-1
100
AcDbCircle
10
-16
20
-16
40
4.5
100
AcDbArc
50
217.819252805
51
232.180755781
0
ARC
5
155
100
AcDbEntity
8
millennium_falcon
6
ByLayer
62
256
370
-1
100
AcDbCircle
10
-16
20
-16
40
4.5
100
AcDbArc
50
127.819244983
51
142.180755781
0
ARC
5
156
100
AcDbEntity
8
millennium_falcon
6
ByLayer
62
256
370
-1
100
AcDbCircle
10
-12.236975005
20
-14.3582953486
40
0.5
100
AcDbArc
50
135
51
203.570323783
0
ARC
5
157
100
AcDbEntity
8
millennium_falcon
6
ByLayer
62
256
370
-1
100
AcDbCircle
10
-14.3582953486
20
-12.236975005
40
0.5
100
AcDbArc
50
246.429676217
51
315
0
ARC
5
158
100
AcDbEntity
8
millennium_falcon
6
ByLayer
62
256
370
-1
100
AcDbCircle
10
-17.6417046514
20
-12.236975005
40
0.5
100
AcDbArc
50
225
51
293.570323783
0
ARC
5
159
100
AcDbEntity
8
millennium_falcon
6
ByLayer
62
256
370
-1
100
AcDbCircle
10
-19.763024995
20
-14.3582953486
40
0.5
100
AcDbArc
50
336.429676217
51
45
0
ARC
5
15A
100
AcDbEntity
8
millennium_falcon
6
ByLayer
62
256
370
-1
100
AcDbCircle
10
-19.763024995
20
-17.6417046514
40
0.5
100
AcDbArc
50
315
51
23.570323783
0
ARC
5
15B
100
AcDbEntity
8
millennium_falcon
6
ByLayer
62
256
370
-1
100
AcDbCircle
10
-17.6417046514
20
-19.763024995
40
0.5
100
AcDbArc
50
66.429676217
51
135
0
LINE
5
15C
100
AcDbEntity
8
millennium_falcon
6
ByLayer
62
256
370
-1
100
AcDbLine
10
-13.9008637411
20
-12.4866501787
11
-14.0047421964
21
-12.590528634
0
LINE
5
15D
100
AcDbEntity
8
millennium_falcon
6
ByLayer
62
256
370
-1
100
AcDbLine
10
-12.5905283956
20
-14.004741958
11
-12.4866502209
21
-13.9008637833
0
ARC
5
15E
100
AcDbEntity
8
millennium_falcon
6
ByLayer
62
256
370
-1
100
AcDbCircle
10
-14.3582953486
20
-19.763024995
40
0.5
100
AcDbArc
50
45
51
113.570323783
0
ARC
5
15F
100
AcDbEntity
8
millennium_falcon
6
ByLayer
62
256
370
-1
100
AcDbCircle
10
-12.236975005
20
-17.6417046514
40
0.5
100
AcDbArc
50
156.429676217
51
225
0
ARC
5
160
100
AcDbEntity
8
millennium_falcon
6
ByLayer
62
256
370
-1
100
AcDbCircle
10
-16
20
-16
40
3.60555127546
100
AcDbArc
50
336.429691957
51
23.5703039591
0
LINE
5
161
100
AcDbEntity
8
millennium_falcon
6
ByLayer
62
256
370
-1
100
AcDbLine
10
-12.5905283956
20
-17.995258042
11
-12.4866501787
21
-18.0991362589
0
LINE
5
162
100
AcDbEntity
8
millennium_falcon
6
ByLayer
62
256
370
-1
100
AcDbLine
10
-14.004741958
20
-19.4094716044
11
-13.9008637833
21
-19.5133497791
0
ARC
5
163
100
AcDbEntity
8
millennium_falcon
6
ByLayer
62
256
370
-1
100
AcDbCircle
10
-16
20
-16
40
3.60555127546
100
AcDbArc
50
246.429725449
51
293.570363419
0
LINE
5
164
100
AcDbEntity
8
millennium_falcon
6
ByLayer
62
256
370
-1
100
AcDbLine
10
-18.0991362589
20
-19.5133498213
11
-17.9952578036
21
-19.409471366
0
LINE
5
165
100
AcDbEntity
8
millennium_falcon
6
ByLayer
62
256
370
-1
100
AcDbLine
10
-19.4094712672
20
-17.9952577048
11
-19.5133497791
21
-18.0991362167
0
ARC
5
166
100
AcDbEntity
8
millennium_falcon
6
ByLayer
62
256
370
-1
100
AcDbCircle
10
-16
20
-16
40
3.60555127546
100
AcDbArc
50
156.429687909
51
203.570313658
0
ARC
5
167
100
AcDbEntity
8
millennium_falcon
6
ByLayer
62
256
370
-1
100
AcDbCircle
10
-16
20
-16
40
3.60555127546
100
AcDbArc
50
66.4297175165
51
113.570365082
0
LINE
5
168
100
AcDbEntity
8
millennium_falcon
6
ByLayer
62
256
370
-1
100
AcDbLine
10
-17.995258042
20
-12.5905283956
11
-18.0991362589
21
-12.4866501787
0
LINE
5
169
100
AcDbEntity
8
millennium_falcon
6
ByLayer
62
256
370
-1
100
AcDbLine
10
-19.4094716044
20
-14.004741958
11
-19.5133498213
21
-13.9008637411
0
LINE
5
16A
100
AcDbEntity
8
millennium_falcon
6
ByLayer
62
256
370
-1
100
AcDbLine
10
8.328
20
66.422
11
7.62003
21
65.72
0
LINE
5
16B
100
AcDbEntity
8
millennium_falcon
6
ByLayer
62
256
370
-1
100
AcDbLine
10
7.62003
20
65.72
11
7.62003
21
47.372
0
LINE
5
16C
100
AcDbEntity
8
millennium_falcon
6
ByLayer
62
256
370
-1
100
AcDbLine
10
7.62003
20
47.372
11
8.94
21
45.01997
0
LINE
5
16D
100
AcDbEntity
8
millennium_falcon
6
ByLayer
62
256
370
-1
100
AcDbLine
10
-8.93394
20
45.01997
11
-7.60794
21
47.372
0
LINE
5
16E
100
AcDbEntity
8
millennium_falcon
6
ByLayer
62
256
370
-1
100
AcDbLine
10
-7.60794
20
47.372
11
-7.60794
21
65.72
0
LINE
5
16F
100
AcDbEntity
8
millennium_falcon
6
ByLayer
62
256
370
-1
100
AcDbLine
10
-7.60794
20
65.72
11
-8.32197
21
66.422
0
LINE
5
170
100
AcDbEntity
8
millennium_falcon
6
ByLayer
62
256
370
-1
100
AcDbLine
10
-24.68994
20
40.65197
11
-24.92394
21
40.65197
0
LINE
5
171
100
AcDbEntity
8
millennium_falcon
6
ByLayer
62
256
370
-1
100
AcDbLine
10
-24.92394
20
40.65197
11
-25.54797
21
40.43597
0
LINE
5
172
100
AcDbEntity
8
millennium_falcon
6
ByLayer
62
256
370
-1
100
AcDbLine
10
-25.54797
20
40.43597
11
-26.34594
21
39.782
0
LINE
5
173
100
AcDbEntity
8
millennium_falcon
6
ByLayer
62
256
370
-1
100
AcDbLine
10
-26.34594
20
39.782
11
-26.34594
21
38.64797
0
LINE
5
174
100
AcDbEntity
8
millennium_falcon
6
ByLayer
62
256
370
-1
100
AcDbLine
10
-26.34594
20
38.64797
11
-25.73397
21
37.81397
0
LINE
5
175
100
AcDbEntity
8
millennium_falcon
6
ByLayer
62
256
370
-1
100
AcDbLine
10
-25.73397
20
37.81397
11
-26.56797
21
35.56997
0
LINE
5
176
100
AcDbEntity
8
millennium_falcon
6
ByLayer
62
256
370
-1
100
AcDbLine
10
-26.56797
20
35.56997
11
-27.41394
21
35.56997
0
LINE
5
177
100
AcDbEntity
8
millennium_falcon
6
ByLayer
62
256
370
-1
100
AcDbLine
10
-27.41394
20
35.56997
11
-29.80797
21
30.55997
0
LINE
5
178
100
AcDbEntity
8
millennium_falcon
6
ByLayer
62
256
370
-1
100
AcDbLine
10
-29.80797
20
30.55997
11
-30.47397
21
29.89997
0
LINE
5
179
100
AcDbEntity
8
millennium_falcon
6
ByLayer
62
256
370
-1
100
AcDbLine
10
-30.47397
20
29.89997
11
-32.85597
21
24.5780171
0
LINE
5
17A
100
AcDbEntity
8
millennium_falcon
6
ByLayer
62
256
370
-1
100
AcDbLine
10
-32.85597
20
24.5780171
11
-33.56997
21
24.032042
0
LINE
5
17B
100
AcDbEntity
8
millennium_falcon
6
ByLayer
62
256
370
-1
100
AcDbLine
10
-33.56997
20
24.032042
11
-35.58597
21
18.81203
0
LINE
5
17C
100
AcDbEntity
8
millennium_falcon
6
ByLayer
62
256
370
-1
100
AcDbLine
10
-38.09397
20
-3.04597
11
-38.09397
21
-3.658
0
LINE
5
17D
100
AcDbEntity
8
millennium_falcon
6
ByLayer
62
256
370
-1
100
AcDbLine
10
-38.09397
20
-16.342
11
-38.09397
21
-16.96
0
LINE
5
17E
100
AcDbEntity
8
millennium_falcon
6
ByLayer
62
256
370
-1
100
AcDbLine
10
38.09403
20
-16.96
11
38.09403
21
-16.342
0
LINE
5
17F
100
AcDbEntity
8
millennium_falcon
6
ByLayer
62
256
370
-1
100
AcDbLine
10
38.09403
20
-3.658
11
38.09403
21
-3.04597
0
LINE
5
180
100
AcDbEntity
8
millennium_falcon
6
ByLayer
62
256
370
-1
100
AcDbLine
10
46.15203
20
25.267958
11
43.66203
21
33.62
0
LINE
5
181
100
AcDbEntity
8
millennium_falcon
6
ByLayer
62
256
370
-1
100
AcDbLine
10
43.66203
20
33.62
11
37.23603
21
33.62
0
LINE
5
182
100
AcDbEntity
8
millennium_falcon
6
ByLayer
62
256
370
-1
100
AcDbLine
10
37.23603
20
33.62
11
34.74603
21
25.267958
0
LINE
5
183
100
AcDbEntity
8
millennium_falcon
6
ByLayer
62
256
370
-1
100
AcDbLine
10
33.49803
20
23.060027
11
31.48803
21
27.307982
0
LINE
5
184
100
AcDbEntity
8
millennium_falcon
6
ByLayer
62
256
370
-1
100
AcDbLine
10
31.48803
20
27.307982
11
30.816
21
27.968
0
LINE
5
185
100
AcDbEntity
8
millennium_falcon
6
ByLayer
62
256
370
-1
100
AcDbLine
10
30.816
20
27.968
11
28.992
21
31.41797
0
LINE
5
186
100
AcDbEntity
8
millennium_falcon
6
ByLayer
62
256
370
-1
100
AcDbLine
10
28.992
20
31.41797
11
27.61203
21
33.31997
0
LINE
5
187
100
AcDbEntity
8
millennium_falcon
6
ByLayer
62
256
370
-1
100
AcDbLine
10
27.61203
20
33.31997
11
26.13003
21
36.72797
0
LINE
5
188
100
AcDbEntity
8
millennium_falcon
6
ByLayer
62
256
370
-1
100
AcDbLine
10
26.13003
20
36.72797
11
26.604
21
38.25797
0
LINE
5
189
100
AcDbEntity
8
millennium_falcon
6
ByLayer
62
256
370
-1
100
AcDbLine
10
26.604
20
38.25797
11
25.87803
21
40.24397
0
LINE
5
18A
100
AcDbEntity
8
millennium_falcon
6
ByLayer
62
256
370
-1
100
AcDbLine
10
25.87803
20
40.24397
11
24.93
21
40.65197
0
LINE
5
18B
100
AcDbEntity
8
millennium_falcon
6
ByLayer
62
256
370
-1
100
AcDbLine
10
24.93
20
40.65197
11
24.69
21
40.65197
0
LINE
5
18C
100
AcDbEntity
8
millennium_falcon
6
ByLayer
62
256
370
-1
100
AcDbLine
10
24.69
20
40.65197
11
20.1
21
51.39797
0
LINE
5
18D
100
AcDbEntity
8
millennium_falcon
6
ByLayer
62
256
370
-1
100
AcDbLine
10
33.49803
20
19.766
11
33.49803
21
23.060027
0
LINE
5
18E
100
AcDbEntity
8
millennium_falcon
6
ByLayer
62
256
370
-1
100
AcDbLine
10
38.3540765377
20
32.12
11
36.183506881
21
24.8394020332
0
LINE
5
18F
100
AcDbEntity
8
millennium_falcon
6
ByLayer
62
256
370
-1
100
AcDbLine
10
42.5439834623
20
32.12
11
38.3540765377
21
32.12
0
LINE
5
190
100
AcDbEntity
8
millennium_falcon
6
ByLayer
62
256
370
-1
100
AcDbLine
10
44.65203
20
25.0491191883
11
42.5439834623
21
32.12
0
LINE
5
191
100
AcDbEntity
8
millennium_falcon
6
ByLayer
62
256
370
-1
100
AcDbLine
10
-10.43394
20
45.4136684912
11
-9.10794
21
47.7656984912
0
LINE
5
192
100
AcDbEntity
8
millennium_falcon
6
ByLayer
62
256
370
-1
100
AcDbLine
10
9.12003
20
47.7641376013
11
10.44
21
45.4121076013
0
LINE
5
193
100
AcDbEntity
8
millennium_falcon
6
ByLayer
62
256
370
-1
100
AcDbLine
10
-8.93394
20
34.231161049
11
-8.93394
21
45.01997
0
ARC
5
194
100
AcDbEntity
8
millennium_falcon
6
ByLayer
62
256
370
-1
100
AcDbCircle
10
-7.93394
20
34.231161049
40
1
100
AcDbArc
50
180
51
269.995984183
0
LINE
5
195
100
AcDbEntity
8
millennium_falcon
6
ByLayer
62
256
370
-1
100
AcDbLine
10
7.93992991077
20
33.2300484592
11
-7.93401008923
21
33.2311610515
0
LINE
5
196
100
AcDbEntity
8
millennium_falcon
6
ByLayer
62
256
370
-1
100
AcDbLine
10
8.94
20
45.01997
11
8.94
21
34.2300484567
0
ARC
5
197
100
AcDbEntity
8
millennium_falcon
6
ByLayer
62
256
370
-1
100
AcDbCircle
10
7.94
20
34.2300484567
40
1
100
AcDbArc
50
269.995984183
51
0
0
LINE
5
198
100
AcDbEntity
8
millennium_falcon
6
ByLayer
62
256
370
-1
100
AcDbLine
10
10.44
20
45.4121076013
11
10.44
21
32.7299433192
0
ARC
5
199
100
AcDbEntity
8
millennium_falcon
6
ByLayer
62
256
370
-1
100
AcDbCircle
10
9.44
20
32.7299433192
40
1
100
AcDbArc
50
269.995984183
51
0
0
LINE
5
19A
100
AcDbEntity
8
millennium_falcon
6
ByLayer
62
256
370
-1
100
AcDbLine
10
9.43992991077
20
31.7299433217
11
-9.43401008923
21
31.7312661817
0
LINE
5
19B
100
AcDbEntity
8
millennium_falcon
6
ByLayer
62
256
370
-1
100
AcDbLine
10
-10.43394
20
32.7312661792
11
-10.43394
21
45.4136684912
0
ARC
5
19C
100
AcDbEntity
8
millennium_falcon
6
ByLayer
62
256
370
-1
100
AcDbCircle
10
-9.43394
20
32.7312661792
40
1
100
AcDbArc
50
180
51
269.995984183
0
LINE
5
19D
100
AcDbEntity
8
millennium_falcon
6
ByLayer
62
256
370
-1
100
AcDbLine
10
-9.10794
20
47.7656984912
11
-9.10794
21
65.098
0
ARC
5
19E
100
AcDbEntity
8
millennium_falcon
6
ByLayer
62
256
370
-1
100
AcDbCircle
10
-10.10794
20
65.098
40
1
100
AcDbArc
50
0
51
90
0
LINE
5
19F
100
AcDbEntity
8
millennium_falcon
6
ByLayer
62
256
370
-1
100
AcDbLine
10
-10.10794
20
66.098
11
-11.5198572776
21
66.098
0
ARC
5
1A0
100
AcDbEntity
8
millennium_falcon
6
ByLayer
62
256
370
-1
100
AcDbCircle
10
-11.5198572776
20
65.098
40
1
100
AcDbArc
50
90
51
156.852263531
0
LINE
5
1A1
100
AcDbEntity
8
millennium_falcon
6
ByLayer
62
256
370
-1
100
AcDbLine
10
-13.4294012101
20
66.9911033375
11
-24.68994
21
40.65197
0
ARC
5
1A2
100
AcDbEntity
8
millennium_falcon
6
ByLayer
62
256
370
-1
100
AcDbCircle
10
-12.509906911
20
66.598
40
1
100
AcDbArc
50
90
51
156.852263531
0
LINE
5
1A3
100
AcDbEntity
8
millennium_falcon
6
ByLayer
62
256
370
-1
100
AcDbLine
10
-9.32197
20
67.598
11
-12.509906911
21
67.598
0
LINE
5
1A4
100
AcDbEntity
8
millennium_falcon
6
ByLayer
62
256
370
-1
100
AcDbLine
10
-8.32197
20
66.422
11
-8.32197
21
66.598
0
ARC
5
1A5
100
AcDbEntity
8
millennium_falcon
6
ByLayer
62
256
370
-1
100
AcDbCircle
10
-9.32197
20
66.598
40
1
100
AcDbArc
50
0
51
90
0
LINE
5
1A6
100
AcDbEntity
8
millennium_falcon
6
ByLayer
62
256
370
-1
100
AcDbLine
10
8.328
20
66.598
11
8.328
21
66.422
0
ARC
5
1A7
100
AcDbEntity
8
millennium_falcon
6
ByLayer
62
256
370
-1
100
AcDbCircle
10
9.328
20
66.598
40
1
100
AcDbArc
50
90
51
180
0
LINE
5
1A8
100
AcDbEntity
8
millennium_falcon
6
ByLayer
62
256
370
-1
100
AcDbLine
10
12.5101221003
20
67.598
11
9.328
21
67.598
0
LINE
5
1A9
100
AcDbEntity
8
millennium_falcon
6
ByLayer
62
256
370
-1
100
AcDbLine
10
20.1
20
51.39797
11
13.429531385
21
66.9913021323
0
ARC
5
1AA
100
AcDbEntity
8
millennium_falcon
6
ByLayer
62
256
370
-1
100
AcDbCircle
10
12.5101221003
20
66.598
40
1
100
AcDbArc
50
23.160124399
51
90
0
ARC
5
1AB
100
AcDbEntity
8
millennium_falcon
6
ByLayer
62
256
370
-1
100
AcDbCircle
10
11.5203052509
20
65.098
40
1
100
AcDbArc
50
23.160124399
51
90
0
LINE
5
1AC
100
AcDbEntity
8
millennium_falcon
6
ByLayer
62
256
370
-1
100
AcDbLine
10
11.5203052509
20
66.098
11
10.12003
21
66.098
0
LINE
5
1AD
100
AcDbEntity
8
millennium_falcon
6
ByLayer
62
256
370
-1
100
AcDbLine
10
9.12003
20
65.098
11
9.12003
21
47.7641376013
0
ARC
5
1AE
100
AcDbEntity
8
millennium_falcon
6
ByLayer
62
256
370
-1
100
AcDbCircle
10
10.12003
20
65.098
40
1
100
AcDbArc
50
90
51
180
0
LINE
5
1AF
100
AcDbEntity
8
millennium_falcon
6
ByLayer
62
256
370
-1
100
AcDbLine
10
36.24603
20
25.267958
11
36.24603
21
14.7203132516
0
ARC
5
1B0
100
AcDbEntity
8
millennium_falcon
6
ByLayer
62
256
370
-1
100
AcDbCircle
10
35.24603
20
14.7203132516
40
1
100
AcDbArc
50
203.160124399
51
0
0
LINE
5
1B1
100
AcDbEntity
8
millennium_falcon
6
ByLayer
62
256
370
-1
100
AcDbLine
10
34.74603
20
25.267958
11
34.74603
21
18.0005240805
0
LINE
5
1B2
100
AcDbEntity
8
millennium_falcon
6
ByLayer
62
256
370
-1
100
AcDbLine
10
34.2648900063
20
17.9052649428
11
33.49803
21
19.766
0
ARC
5
1B3
100
AcDbEntity
8
millennium_falcon
6
ByLayer
62
256
370
-1
100
AcDbCircle
10
34.49603
20
18.0005240805
40
0.25
100
AcDbArc
50
202.397903784
51
0
0
LINE
5
1B4
100
AcDbEntity
8
millennium_falcon
6
ByLayer
62
256
370
-1
100
AcDbLine
10
44.65203
20
11.3493740129
11
44.65203
21
25.0491191883
0
ARC
5
1B5
100
AcDbEntity
8
millennium_falcon
6
ByLayer
62
256
370
-1
100
AcDbCircle
10
43.65203
20
11.3493740129
40
1
100
AcDbArc
50
298.026189258
51
0
0
LINE
5
1B6
100
AcDbEntity
8
millennium_falcon
6
ByLayer
62
256
370
-1
100
AcDbLine
10
46.15203
20
10.4485496052
11
46.15203
21
25.267958
0
ARC
5
1B7
100
AcDbEntity
8
millennium_falcon
6
ByLayer
62
256
370
-1
100
AcDbCircle
10
45.15203
20
10.4485496052
40
1
100
AcDbArc
50
298.026189258
51
0
0
LINE
5
1B8
100
AcDbEntity
8
millennium_falcon
6
ByLayer
62
256
370
-1
100
AcDbLine
10
39.642836336
20
8.08245121409
11
44.1219050992
21
10.4666411025
0
ARC
5
1B9
100
AcDbEntity
8
millennium_falcon
6
ByLayer
62
256
370
-1
100
AcDbCircle
10
40.1127114352
20
7.19971830364
40
1
100
AcDbArc
50
118.026189258
51
203.208914778
0
LINE
5
1BA
100
AcDbEntity
8
millennium_falcon
6
ByLayer
62
256
370
-1
100
AcDbLine
10
41.5461447913
20
7.396306239
11
45.6219050992
21
9.56581669472
0
ARC
5
1BB
100
AcDbEntity
8
millennium_falcon
6
ByLayer
62
256
370
-1
100
AcDbCircle
10
42.0160198904
20
6.51357332855
40
1
100
AcDbArc
50
118.026189258
51
201.456335745
0
ARC
5
1BC
100
AcDbEntity
8
millennium_falcon
6
ByLayer
62
256
370
-1
100
AcDbCircle
10
37.59403
20
-2.61881308671
40
1
100
AcDbArc
50
98.9845541242
51
180
0
LINE
5
1BD
100
AcDbEntity
8
millennium_falcon
6
ByLayer
62
256
370
-1
100
AcDbLine
10
36.59403
20
-4.12577905531
11
36.59403
21
-2.61881308671
0
ARC
5
1BE
100
AcDbEntity
8
millennium_falcon
6
ByLayer
62
256
370
-1
100
AcDbCircle
10
37.59403
20
-4.12577905531
40
1
100
AcDbArc
50
180
51
266.186231845
0
LINE
5
1BF
100
AcDbEntity
8
millennium_falcon
6
ByLayer
62
256
370
-1
100
AcDbLine
10
42.7405436698
20
-3.96774259673
11
38.09403
21
-3.658
0
ARC
5
1C0
100
AcDbEntity
8
millennium_falcon
6
ByLayer
62
256
370
-1
100
AcDbCircle
10
42.67403
20
-4.96552811062
40
1
100
AcDbArc
50
1.01777749807e-13
51
86.1862318446
0
LINE
5
1C1
100
AcDbEntity
8
millennium_falcon
6
ByLayer
62
256
370
-1
100
AcDbLine
10
41.2405436698
20
-5.37107976266
11
37.5275163302
21
-5.1235645692
0
ARC
5
1C2
100
AcDbEntity
8
millennium_falcon
6
ByLayer
62
256
370
-1
100
AcDbCircle
10
41.17403
20
-6.36886527655
40
1
100
AcDbArc
50
360
51
86.1862318446
0
ARC
5
1C3
100
AcDbEntity
8
millennium_falcon
6
ByLayer
62
256
370
-1
100
AcDbCircle
10
37.59403
20
-15.8737212954
40
1
100
AcDbArc
50
93.7527347184
51
180
0
LINE
5
1C4
100
AcDbEntity
8
millennium_falcon
6
ByLayer
62
256
370
-1
100
AcDbLine
10
36.59403
20
-17.3871569133
11
36.59403
21
-15.8737212954
0
ARC
5
1C5
100
AcDbEntity
8
millennium_falcon
6
ByLayer
62
256
370
-1
100
AcDbCircle
10
37.59403
20
-17.3871569133
40
1
100
AcDbArc
50
180
51
261.015445876
0
LINE
5
1C6
100
AcDbEntity
8
millennium_falcon
6
ByLayer
62
256
370
-1
100
AcDbLine
10
40.6155572638
20
-18.8773068073
11
37.437861803
21
-18.3748873898
0
ARC
5
1C7
100
AcDbEntity
8
millennium_falcon
6
ByLayer
62
256
370
-1
100
AcDbCircle
10
40.4593890668
20
-19.8650372838
40
1
100
AcDbArc
50
346.297191126
51
81.0154458758
0
LINE
5
1C8
100
AcDbEntity
8
millennium_falcon
6
ByLayer
62
256
370
-1
100
AcDbLine
10
42.4283363744
20
-17.6452889808
11
38.09403
21
-16.96
0
ARC
5
1C9
100
AcDbEntity
8
millennium_falcon
6
ByLayer
62
256
370
-1
100
AcDbCircle
10
42.2721681774
20
-18.6330194573
40
1
100
AcDbArc
50
348.457511998
51
81.0154458758
0
LINE
5
1CA
100
AcDbEntity
8
millennium_falcon
6
ByLayer
62
256
370
-1
100
AcDbLine
10
38.09403
20
-16.342
11
42.7394807568
21
-16.0372983912
0
LINE
5
1CB
100
AcDbEntity
8
millennium_falcon
6
ByLayer
62
256
370
-1
100
AcDbLine
10
43.67403
20
-15.0394425908
11
43.67403
21
-4.96552811062
0
ARC
5
1CC
100
AcDbEntity
8
millennium_falcon
6
ByLayer
62
256
370
-1
100
AcDbCircle
10
42.67403
20
-15.0394425908
40
1
100
AcDbArc
50
273.752734718
51
0
0
LINE
5
1CD
100
AcDbEntity
8
millennium_falcon
6
ByLayer
62
256
370
-1
100
AcDbLine
10
37.5285792432
20
-14.875865495
11
41.2394807568
21
-14.6324622774
0
LINE
5
1CE
100
AcDbEntity
8
millennium_falcon
6
ByLayer
62
256
370
-1
100
AcDbLine
10
42.17403
20
-13.634606477
11
42.17403
21
-6.36886527655
0
ARC
5
1CF
100
AcDbEntity
8
millennium_falcon
6
ByLayer
62
256
370
-1
100
AcDbCircle
10
41.17403
20
-13.634606477
40
1
100
AcDbArc
50
273.752734718
51
0
0
ARC
5
1D0
100
AcDbEntity
8
millennium_falcon
6
ByLayer
62
256
370
-1
100
AcDbCircle
10
-37.59397
20
-17.3871569133
40
1
100
AcDbArc
50
278.984554124
51
360
0
LINE
5
1D1
100
AcDbEntity
8
millennium_falcon
6
ByLayer
62
256
370
-1
100
AcDbLine
10
-36.59397
20
-15.8743557021
11
-36.59397
21
-17.3871569133
0
ARC
5
1D2
100
AcDbEntity
8
millennium_falcon
6
ByLayer
62
256
370
-1
100
AcDbCircle
10
-37.59397
20
-15.8743557021
40
1
100
AcDbArc
50
0
51
86.169760466
0
LINE
5
1D3
100
AcDbEntity
8
millennium_falcon
6
ByLayer
62
256
370
-1
100
AcDbLine
10
-41.3067705102
20
-14.6235448616
11
-37.5271694898
21
-14.8765893507
0
ARC
5
1D4
100
AcDbEntity
8
millennium_falcon
6
ByLayer
62
256
370
-1
100
AcDbCircle
10
-41.23997
20
-13.6257785103
40
1
100
AcDbArc
50
180
51
266.169760466
0
LINE
5
1D5
100
AcDbEntity
8
millennium_falcon
6
ByLayer
62
256
370
-1
100
AcDbLine
10
-42.8067705102
20
-16.0264777554
11
-38.09397
21
-16.342
0
ARC
5
1D6
100
AcDbEntity
8
millennium_falcon
6
ByLayer
62
256
370
-1
100
AcDbCircle
10
-42.73997
20
-15.0287114041
40
1
100
AcDbArc
50
180
51
266.169760466
0
LINE
5
1D7
100
AcDbEntity
8
millennium_falcon
6
ByLayer
62
256
370
-1
100
AcDbLine
10
-42.23997
20
-6.37420388616
11
-42.23997
21
-13.6257785103
0
ARC
5
1D8
100
AcDbEntity
8
millennium_falcon
6
ByLayer
62
256
370
-1
100
AcDbCircle
10
-41.23997
20
-6.37420388616
40
1
100
AcDbArc
50
93.8299364515
51
180
0
LINE
5
1D9
100
AcDbEntity
8
millennium_falcon
6
ByLayer
62
256
370
-1
100
AcDbLine
10
-43.73997
20
-4.97126355446
11
-43.73997
21
-15.0287114041
0
LINE
5
1DA
100
AcDbEntity
8
millennium_falcon
6
ByLayer
62
256
370
-1
100
AcDbLine
10
-38.09397
20
-3.658
11
-42.8067652323
21
-3.97349684979
0
ARC
5
1DB
100
AcDbEntity
8
millennium_falcon
6
ByLayer
62
256
370
-1
100
AcDbCircle
10
-42.73997
20
-4.97126355446
40
1
100
AcDbArc
50
93.8299364515
51
180
0
LINE
5
1DC
100
AcDbEntity
8
millennium_falcon
6
ByLayer
62
256
370
-1
100
AcDbLine
10
-37.5271747677
20
-5.1234134819
11
-41.3067652323
21
-5.37643718149
0
ARC
5
1DD
100
AcDbEntity
8
millennium_falcon
6
ByLayer
62
256
370
-1
100
AcDbCircle
10
-37.59397
20
-4.12564677723
40
1
100
AcDbArc
50
273.829936451
51
360
0
LINE
5
1DE
100
AcDbEntity
8
millennium_falcon
6
ByLayer
62
256
370
-1
100
AcDbLine
10
-36.59397
20
-2.61881308671
11
-36.59397
21
-4.12564677723
0
ARC
5
1DF
100
AcDbEntity
8
millennium_falcon
6
ByLayer
62
256
370
-1
100
AcDbCircle
10
-37.59397
20
-2.61881308671
40
1
100
AcDbArc
50
0
51
81.0154458758
0
LINE
5
1E0
100
AcDbEntity
8
millennium_falcon
6
ByLayer
62
256
370
-1
100
AcDbLine
10
-40.6169562275
20
-1.12843251875
11
-37.437801803
21
-1.63108261018
0
ARC
5
1E1
100
AcDbEntity
8
millennium_falcon
6
ByLayer
62
256
370
-1
100
AcDbCircle
10
0
20
-10
40
42.6447010347
100
AcDbArc
50
141.453059147
51
166.30531862
0
ARC
5
1E2
100
AcDbEntity
8
millennium_falcon
6
ByLayer
62
256
370
-1
100
AcDbCircle
10
-40.4607880305
20
-0.140702042228
40
1
100
AcDbArc
50
166.30531862
51
261.015445876
0
LINE
5
1E3
100
AcDbEntity
8
millennium_falcon
6
ByLayer
62
256
370
-1
100
AcDbLine
10
-42.4295151842
20
-2.3604851533
11
-38.09397
21
-3.04597
0
ARC
5
1E4
100
AcDbEntity
8
millennium_falcon
6
ByLayer
62
256
370
-1
100
AcDbCircle
10
-42.2733469873
20
-1.37275467678
40
1
100
AcDbArc
50
168.465338161
51
261.015445876
0
ARC
5
1E5
100
AcDbEntity
8
millennium_falcon
6
ByLayer
62
256
370
-1
100
AcDbCircle
10
-35.7053902127
20
17.6255161268
40
1
100
AcDbArc
50
322.270622947
51
51.2419143474
0
ARC
5
1E6
100
AcDbEntity
8
millennium_falcon
6
ByLayer
62
256
370
-1
100
AcDbCircle
10
-40.4593868396
20
-19.8650464181
40
1
100
AcDbArc
50
98.9845541242
51
193.70282181
0
ARC
5
1E7
100
AcDbEntity
8
millennium_falcon
6
ByLayer
62
256
370
-1
100
AcDbCircle
10
-42.2721663007
20
-18.6330286471
40
1
100
AcDbArc
50
98.9845541242
51
191.542500458
0
ARC
5
1E8
100
AcDbEntity
8
millennium_falcon
6
ByLayer
62
256
370
-1
100
AcDbCircle
10
42.2733488628
20
-1.37276386673
40
1
100
AcDbArc
50
278.984554124
51
11.534649383
0
ARC
5
1E9
100
AcDbEntity
8
millennium_falcon
6
ByLayer
62
256
370
-1
100
AcDbCircle
10
40.4607902564
20
-0.140711176787
40
1
100
AcDbArc
50
278.984554124
51
13.6946684444
0
ARC
5
1EA
100
AcDbEntity
8
millennium_falcon
6
ByLayer
62
256
370
-1
100
AcDbCircle
10
0
20
-10
40
44.1447010347
100
AcDbArc
50
142.2706235
51
168.465338161
0
LINE
5
1EB
100
AcDbEntity
8
millennium_falcon
6
ByLayer
62
256
370
-1
100
AcDbLine
10
-35.58597
20
18.81203
11
-35.0793566884
21
18.405312271
0
LINE
5
1EC
100
AcDbEntity
8
millennium_falcon
6
ByLayer
62
256
370
-1
100
AcDbLine
10
-38.09397
20
-16.96
11
-42.4283336717
21
-17.64529804
0
ARC
5
1ED
100
AcDbEntity
8
millennium_falcon
6
ByLayer
62
256
370
-1
100
AcDbCircle
10
0
20
-10
40
44.1447010347
100
AcDbArc
50
191.542500811
51
348.457511998
0
LINE
5
1EE
100
AcDbEntity
8
millennium_falcon
6
ByLayer
62
256
370
-1
100
AcDbLine
10
-37.437801803
20
-18.3748873898
11
-40.6155543622
21
-18.877315835
0
ARC
5
1EF
100
AcDbEntity
8
millennium_falcon
6
ByLayer
62
256
370
-1
100
AcDbCircle
10
0
20
-10
40
44.1447010347
100
AcDbArc
50
11.5346498008
51
21.456335745
0
LINE
5
1F0
100
AcDbEntity
8
millennium_falcon
6
ByLayer
62
256
370
-1
100
AcDbLine
10
38.09403
20
-3.04597
11
42.4295162338
21
-2.36049447384
0
ARC
5
1F1
100
AcDbEntity
8
millennium_falcon
6
ByLayer
62
256
370
-1
100
AcDbCircle
10
0
20
-10
40
42.6447010347
100
AcDbArc
50
13.6946686092
51
23.2089147783
0
LINE
5
1F2
100
AcDbEntity
8
millennium_falcon
6
ByLayer
62
256
370
-1
100
AcDbLine
10
37.437861803
20
-1.63108261018
11
40.6169584533
21
-1.12844165331
0
LINE
5
1F3
100
AcDbEntity
8
millennium_falcon
6
ByLayer
62
256
370
-1
100
AcDbLine
10
-12.4393515767
20
65.4911033375
11
-27.7440154254
21
29.692498198
0
ARC
5
1F4
100
AcDbEntity
8
millennium_falcon
6
ByLayer
62
256
370
-1
100
AcDbCircle
10
-26.8245211263
20
29.2993948605
40
1
100
AcDbArc
50
156.852263531
51
225
0
LINE
5
1F5
100
AcDbEntity
8
millennium_falcon
6
ByLayer
62
256
370
-1
100
AcDbLine
10
-29.2263906753
20
26.2251259796
11
-33.3523304932
21
16.5742841298
0
ARC
5
1F6
100
AcDbEntity
8
millennium_falcon
6
ByLayer
62
256
370
-1
100
AcDbCircle
10
-28.3068963763
20
25.8320226421
40
1
100
AcDbArc
50
45
51
156.852263531
0
LINE
5
1F7
100
AcDbEntity
8
millennium_falcon
6
ByLayer
62
256
370
-1
100
AcDbLine
10
34.3266207153
20
14.3270111193
11
29.2336529606
21
26.2326720741
0
ARC
5
1F8
100
AcDbEntity
8
millennium_falcon
6
ByLayer
62
256
370
-1
100
AcDbCircle
10
28.3142436759
20
25.8393699418
40
1
100
AcDbArc
50
23.160124399
51
135
0
LINE
5
1F9
100
AcDbEntity
8
millennium_falcon
6
ByLayer
62
256
370
-1
100
AcDbLine
10
27.7506566153
20
29.6994231971
11
12.4397145355
21
65.4913021323
0
ARC
5
1FA
100
AcDbEntity
8
millennium_falcon
6
ByLayer
62
256
370
-1
100
AcDbCircle
10
26.8312473307
20
29.3061210648
40
1
100
AcDbArc
50
315
51
23.160124399
0
ARC
5
1FB
100
AcDbEntity
8
millennium_falcon
6
ByLayer
62
256
370
-1
100
AcDbCircle
10
0
20
-10
40
42.6447010347
100
AcDbArc
50
327.228871509
51
346.297191126
0
ARC
5
1FC
100
AcDbEntity
8
millennium_falcon
6
ByLayer
62
256
370
-1
100
AcDbCircle
10
35.0165081423
20
-32.5416344081
40
1
100
AcDbArc
50
225
51
327.228871509
0
ARC
5
1FD
100
AcDbEntity
8
millennium_falcon
6
ByLayer
62
256
370
-1
100
AcDbCircle
10
32.9684474853
20
-35.4433212195
40
1
100
AcDbArc
50
322.340920593
51
45
0
ARC
5
1FE
100
AcDbEntity
8
millennium_falcon
6
ByLayer
62
256
370
-1
100
AcDbCircle
10
0
20
-10
40
42.6447010347
100
AcDbArc
50
193.702822214
51
212.771128491
0
ARC
5
1FF
100
AcDbEntity
8
millennium_falcon
6
ByLayer
62
256
370
-1
100
AcDbCircle
10
-35.0165081423
20
-32.5416344081
40
1
100
AcDbArc
50
212.771128491
51
315
0
ARC
5
200
100
AcDbEntity
8
millennium_falcon
6
ByLayer
62
256
370
-1
100
AcDbCircle
10
-32.9684474853
20
-35.4433212195
40
1
100
AcDbArc
50
135
51
217.659079407
0
ARC
5
201
100
AcDbEntity
8
millennium_falcon
6
ByLayer
62
256
370
-1
100
AcDbCircle
10
16
20
16
40
5.5
100
AcDbArc
50
60.6185209152
51
29.3815017244
0
LINE
5
202
100
AcDbEntity
8
millennium_falcon
6
ByLayer
62
256
370
-1
100
AcDbLine
10
20.9568128883
20
19.8961527165
11
27.6071368947
21
26.5464767229
0
ARC
5
203
100
AcDbEntity
8
millennium_falcon
6
ByLayer
62
256
370
-1
100
AcDbCircle
10
21.6639196695
20
19.1890459353
40
1
100
AcDbArc
50
135
51
209.381501724
0
ARC
5
204
100
AcDbEntity
8
millennium_falcon
6
ByLayer
62
256
370
-1
100
AcDbCircle
10
19.1890459353
20
21.6639196695
40
1
100
AcDbArc
50
240.618498276
51
315
0
ARC
5
205
100
AcDbEntity
8
millennium_falcon
6
ByLayer
62
256
370
-1
100
AcDbCircle
10
-16
20
16
40
5.5
100
AcDbArc
50
150.61850815
51
119.381501724
0
LINE
5
206
100
AcDbEntity
8
millennium_falcon
6
ByLayer
62
256
370
-1
100
AcDbLine
10
-27.5316279075
20
28.5922880793
11
-19.8961527165
21
20.9568128883
0
ARC
5
207
100
AcDbEntity
8
millennium_falcon
6
ByLayer
62
256
370
-1
100
AcDbCircle
10
-19.1890459353
20
21.6639196695
40
1
100
AcDbArc
50
225
51
299.381501724
0
ARC
5
208
100
AcDbEntity
8
millennium_falcon
6
ByLayer
62
256
370
-1
100
AcDbCircle
10
-21.6639196695
20
19.1890459353
40
1
100
AcDbArc
50
330.618498276
51
45
0
ARC
5
209
100
AcDbEntity
8
millennium_falcon
6
ByLayer
62
256
370
-1
100
AcDbCircle
10
-16
20
-16
40
5.5
100
AcDbArc
50
240.618512594
51
209.381501724
0
LINE
5
20A
100
AcDbEntity
8
millennium_falcon
6
ByLayer
62
256
370
-1
100
AcDbLine
10
-34.3094013611
20
-33.2487411893
11
-20.9568128883
21
-19.8961527165
0
ARC
5
20B
100
AcDbEntity
8
millennium_falcon
6
ByLayer
62
256
370
-1
100
AcDbCircle
10
-21.6639196695
20
-19.1890459353
40
1
100
AcDbArc
50
315
51
29.3815017244
0
ARC
5
20C
100
AcDbEntity
8
millennium_falcon
6
ByLayer
62
256
370
-1
100
AcDbCircle
10
-19.1890459353
20
-21.6639196695
40
1
100
AcDbArc
50
60.6184982756
51
135
0
ARC
5
20D
100
AcDbEntity
8
millennium_falcon
6
ByLayer
62
256
370
-1
100
AcDbCircle
10
16
20
-16
40
5.5
100
AcDbArc
50
330.618505258
51
299.381501724
0
LINE
5
20E
100
AcDbEntity
8
millennium_falcon
6
ByLayer
62
256
370
-1
100
AcDbLine
10
19.8961527165
20
-20.9568128883
11
33.6755542665
21
-34.7362144383
0
ARC
5
20F
100
AcDbEntity
8
millennium_falcon
6
ByLayer
62
256
370
-1
100
AcDbCircle
10
19.1890459353
20
-21.6639196695
40
1
100
AcDbArc
50
45
51
119.381501724
0
ARC
5
210
100
AcDbEntity
8
millennium_falcon
6
ByLayer
62
256
370
-1
100
AcDbCircle
10
21.6639196695
20
-19.1890459353
40
1
100
AcDbArc
50
150.618498276
51
225
0
LINE
5
211
100
AcDbEntity
8
millennium_falcon
6
ByLayer
62
256
370
-1
100
AcDbLine
10
20.9568128883
20
-19.8961527165
11
34.3094013611
21
-33.2487411893
0
LINE
5
212
100
AcDbEntity
8
millennium_falcon
6
ByLayer
62
256
370
-1
100
AcDbLine
10
-33.6755542665
20
-34.7362144383
11
-19.8961529549
21
-20.9568131267
0
LINE
5
213
100
AcDbEntity
8
millennium_falcon
6
ByLayer
62
256
370
-1
100
AcDbLine
10
-27.5997895951
20
26.5391294233
11
-20.9568132255
21
19.8961530537
0
LINE
5
214
100
AcDbEntity
8
millennium_falcon
6
ByLayer
62
256
370
-1
100
AcDbLine
10
19.8961529549
20
20.9568131267
11
27.5383541118
21
28.5990142836
0
ARC
5
215
100
AcDbEntity
8
millennium_falcon
6
ByLayer
62
256
370
-1
100
AcDbCircle
10
0
20
-10
40
42.6447
100
AcDbArc
50
217.661035229
51
322.341
0
ENDSEC
0
SECTION
2
OBJECTS
0
DICTIONARY
5
C
330
0
100
AcDbDictionary
281
1
3
ACAD_GROUP
350
D
0
DICTIONARY
5
D
330
C
100
AcDbDictionary
281
1
0
ENDSEC
0
EOF
